<svg width="26" height="26" viewBox="0 0 26 26" fill="none" xmlns="http://www.w3.org/2000/svg">
<path d="M8.01114 20.8762C7.63168 20.8762 7.31338 20.7476 7.05623 20.4905C6.79998 20.2342 6.67186 19.9164 6.67186 19.5369C6.67186 19.1575 6.79998 18.8396 7.05623 18.5834C7.31338 18.3262 7.63168 18.1976 8.01114 18.1976C8.39061 18.1976 8.70891 18.3262 8.96605 18.5834C9.2223 18.8396 9.35043 19.1575 9.35043 19.5369C9.35043 19.9164 9.2223 20.2342 8.96605 20.4905C8.70891 20.7476 8.39061 20.8762 8.01114 20.8762ZM13.3683 20.8762C12.9888 20.8762 12.671 20.7476 12.4147 20.4905C12.1576 20.2342 12.029 19.9164 12.029 19.5369C12.029 19.1575 12.1576 18.8396 12.4147 18.5834C12.671 18.3262 12.9888 18.1976 13.3683 18.1976C13.7478 18.1976 14.0661 18.3262 14.3232 18.5834C14.5794 18.8396 14.7076 19.1575 14.7076 19.5369C14.7076 19.9164 14.5794 20.2342 14.3232 20.4905C14.0661 20.7476 13.7478 20.8762 13.3683 20.8762ZM18.7254 20.8762C18.346 20.8762 18.0281 20.7476 17.7719 20.4905C17.5147 20.2342 17.3861 19.9164 17.3861 19.5369C17.3861 19.1575 17.5147 18.8396 17.7719 18.5834C18.0281 18.3262 18.346 18.1976 18.7254 18.1976C19.1049 18.1976 19.4228 18.3262 19.679 18.5834C19.9361 18.8396 20.0647 19.1575 20.0647 19.5369C20.0647 19.9164 19.9361 20.2342 19.679 20.4905C19.4228 20.7476 19.1049 20.8762 18.7254 20.8762ZM5.33257 15.5191C4.95311 15.5191 4.6348 15.3905 4.37766 15.1333C4.12141 14.8771 3.99329 14.5592 3.99329 14.1798V12.8405C3.99329 10.4744 4.75221 8.42085 6.27007 6.67978C7.78793 4.93871 9.70757 3.91192 12.029 3.59942V2.12621C12.029 1.74674 12.1576 1.42844 12.4147 1.1713C12.671 0.915047 12.9888 0.786922 13.3683 0.786922C13.7478 0.786922 14.0661 0.915047 14.3232 1.1713C14.5794 1.42844 14.7076 1.74674 14.7076 2.12621V3.59942C17.029 3.91192 18.9486 4.93871 20.4665 6.67978C21.9844 8.42085 22.7433 10.4744 22.7433 12.8405V14.1798C22.7433 14.5592 22.6147 14.8771 22.3576 15.1333C22.1013 15.3905 21.7835 15.5191 21.404 15.5191H5.33257ZM8.01114 24.8941C7.63168 24.8941 7.31338 24.7655 7.05623 24.5083C6.79998 24.2521 6.67186 23.9342 6.67186 23.5548C6.67186 23.1753 6.79998 22.8575 7.05623 22.6012C7.31338 22.3441 7.63168 22.2155 8.01114 22.2155C8.39061 22.2155 8.70891 22.3441 8.96605 22.6012C9.2223 22.8575 9.35043 23.1753 9.35043 23.5548C9.35043 23.9342 9.2223 24.2521 8.96605 24.5083C8.70891 24.7655 8.39061 24.8941 8.01114 24.8941ZM13.3683 24.8941C12.9888 24.8941 12.671 24.7655 12.4147 24.5083C12.1576 24.2521 12.029 23.9342 12.029 23.5548C12.029 23.1753 12.1576 22.8575 12.4147 22.6012C12.671 22.3441 12.9888 22.2155 13.3683 22.2155C13.7478 22.2155 14.0661 22.3441 14.3232 22.6012C14.5794 22.8575 14.7076 23.1753 14.7076 23.5548C14.7076 23.9342 14.5794 24.2521 14.3232 24.5083C14.0661 24.7655 13.7478 24.8941 13.3683 24.8941ZM18.7254 24.8941C18.346 24.8941 18.0281 24.7655 17.7719 24.5083C17.5147 24.2521 17.3861 23.9342 17.3861 23.5548C17.3861 23.1753 17.5147 22.8575 17.7719 22.6012C18.0281 22.3441 18.346 22.2155 18.7254 22.2155C19.1049 22.2155 19.4228 22.3441 19.679 22.6012C19.9361 22.8575 20.0647 23.1753 20.0647 23.5548C20.0647 23.9342 19.9361 24.2521 19.679 24.5083C19.4228 24.7655 19.1049 24.8941 18.7254 24.8941Z" fill="#AEBAFC"/>
</svg>
