<svg width="26" height="26" viewBox="0 0 26 26" fill="none" xmlns="http://www.w3.org/2000/svg">
<mask id="mask0_1672_2745" style="mask-type:alpha" maskUnits="userSpaceOnUse" x="0" y="0" width="26" height="26">
<rect x="0.954102" y="0.786922" width="25" height="25" fill="#D9D9D9"/>
</mask>
<g mask="url(#mask0_1672_2745)">
<path d="M11.5791 15.1619V17.6619C11.5791 18.1828 11.7614 18.6255 12.126 18.99C12.4906 19.3546 12.9333 19.5369 13.4541 19.5369C13.9749 19.5369 14.4176 19.3546 14.7822 18.99C15.1468 18.6255 15.3291 18.1828 15.3291 17.6619V15.1619H17.8291C18.3499 15.1619 18.7926 14.9796 19.1572 14.615C19.5218 14.2505 19.7041 13.8078 19.7041 13.2869C19.7041 12.7661 19.5218 12.3234 19.1572 11.9588C18.7926 11.5942 18.3499 11.4119 17.8291 11.4119H15.3291V8.91192C15.3291 8.39109 15.1468 7.94838 14.7822 7.5838C14.4176 7.21921 13.9749 7.03692 13.4541 7.03692C12.9333 7.03692 12.4906 7.21921 12.126 7.5838C11.7614 7.94838 11.5791 8.39109 11.5791 8.91192V11.4119H9.0791C8.55827 11.4119 8.11556 11.5942 7.75098 11.9588C7.38639 12.3234 7.2041 12.7661 7.2041 13.2869C7.2041 13.8078 7.38639 14.2505 7.75098 14.615C8.11556 14.9796 8.55827 15.1619 9.0791 15.1619H11.5791ZM4.7041 24.5369C4.0166 24.5369 3.42806 24.2921 2.93848 23.8025C2.44889 23.313 2.2041 22.7244 2.2041 22.0369V4.53692C2.2041 3.84942 2.44889 3.26088 2.93848 2.7713C3.42806 2.28171 4.0166 2.03692 4.7041 2.03692H22.2041C22.8916 2.03692 23.4801 2.28171 23.9697 2.7713C24.4593 3.26088 24.7041 3.84942 24.7041 4.53692V22.0369C24.7041 22.7244 24.4593 23.313 23.9697 23.8025C23.4801 24.2921 22.8916 24.5369 22.2041 24.5369H4.7041Z" fill="#81CF34"/>
</g>
</svg>
