<svg width="141" height="140" viewBox="0 0 141 140" fill="none" xmlns="http://www.w3.org/2000/svg">
<circle cx="70.9229" cy="70.0063" r="70" fill="#FFC18D"/>
<g style="mix-blend-mode:luminosity">
<path d="M76.5538 40.9976C77.9652 40.9976 79.7615 42.0321 80.8522 41.6432C82.3722 39.7613 85.8553 36.1924 85.6473 36.3825C85.4798 36.5472 85.3087 36.7169 85.1338 36.8918C85.4497 36.5759 85.6095 36.4171 85.6473 36.3825C90.8037 31.3138 92.5969 30.9986 96.6817 32.3406C100.899 33.7263 113.25 36.8918 114.79 47.2247C115.362 51.0634 108.743 55.625 105.407 55.625C102.071 55.625 98.478 53.572 96.6817 53.8286C94.8854 54.0853 101.814 64.8633 105.407 69.2258C112.849 87.1892 108.23 94.8878 106.69 99.5069C105.458 103.202 98.3069 107.034 94.8854 108.489C88.7265 110.884 73.3717 115.588 55.511 109.84C37.6503 104.092 38.9423 81.2869 42.535 71.2788C45.0156 64.6067 48.4885 52.135 42.535 55.625C35.0931 59.9875 27.3944 61.014 23.8017 60.2441C20.209 59.4743 29.849 43.0505 35.7513 38.9447C40.4731 35.66 48.095 39.1158 49.9769 42.2807C51.0889 41.4253 55.4984 38.9447 64.3476 38.9447C69.3684 38.9447 75.1424 40.9976 76.5538 40.9976Z" fill="white"/>
<path d="M78.2307 75.1962C68.2226 68.5241 73.2694 52.3571 78.2307 46.9681C81.139 42.4345 87.7769 33.1107 91.0616 32.0842C95.1675 30.8011 104.662 36.7033 109.025 38.243C113.387 39.7828 114.414 48.2512 114.157 50.3042C113.901 52.3571 109.025 57.2329 102.353 54.6667C97.0153 52.6137 95.8519 54.6667 95.9374 55.9498C94.141 59.5425 103.194 65.2719 104.662 68.5241C107.537 74.8883 104.32 76.9926 102.353 77.2492C99.2735 80.5853 88.2388 81.8684 78.2307 75.1962Z" fill="#FFDABB"/>
<path d="M72.7726 87.0007C73.3568 89.0537 72.7726 93.9294 64.8864 93.1596" stroke="#FA9E52" stroke-width="4" stroke-linecap="round"/>
<path d="M51.2855 42.3489C54.1083 40.3815 62.5255 37.3705 73.6114 41.0658" stroke="#FA9E52" stroke-width="6" stroke-linecap="round"/>
<path d="M81.5667 41.3225C83.8763 37.5587 89.5219 30.3392 93.6278 31.5709C98.7602 33.1106 104.919 36.4466 108.512 37.7297C112.104 39.0128 114.671 43.8886 114.671 48.7644C114.671 51.8438 111.335 53.8968 108.512 55.1799C105.689 56.4629 100.813 55.2825 97.9904 54.1534C94.1411 52.6137 97.7337 60.5689 103.123 66.9843C108.512 73.3998 112.104 93.1595 106.202 100.601C100.3 108.043 96.194 105.734 93.6278 109.583" stroke="#FA9E52" stroke-width="6" stroke-linecap="round"/>
<path d="M48.976 42.6054C46.1532 39.0128 38.7626 33.983 31.7825 42.6054C23.0575 53.3834 18.6949 64.6747 29.7296 62.1085C40.7642 59.5423 42.5605 54.9231 44.8701 56.7195C47.1797 58.5158 36.9149 82.6381 39.7377 92.3896C42.5605 102.141 51.7988 111.893 63.0901 111.636" stroke="#FA9E52" stroke-width="6" stroke-linecap="round"/>
<path d="M67.4527 81.8682C66.2209 78.3782 70.361 78.19 72.5851 78.5321C74.2959 78.5321 77.8201 79.1994 78.2307 81.8682C78.7439 85.2043 75.4079 86.2308 73.8682 86.744C72.3285 87.2573 68.9924 86.2307 67.4527 81.8682Z" fill="#FA9E52"/>
<ellipse cx="64.8864" cy="63.0066" rx="1.79634" ry="2.18127" fill="#FA9E52"/>
<ellipse cx="79.3213" cy="63.3917" rx="1.60387" ry="1.79634" fill="#FA9E52"/>
<path d="M72.8416 86.4875C73.4404 89.1392 75.921 94.4427 80.5402 93.4162" stroke="#FA9E52" stroke-width="4" stroke-linecap="round"/>
</g>
</svg>
