<svg width="166" height="270" viewBox="0 0 166 270" fill="none" xmlns="http://www.w3.org/2000/svg">
<path d="M160.759 43.7874H161.726C162.47 43.7874 163.114 46.1516 163.659 50.8801L163.018 51.2053C162.104 51.2053 161.351 48.7327 160.759 43.7874ZM163.984 56.0393C165.004 57.1174 165.648 57.6565 165.918 57.6565V59.2649C164.787 59.9094 163.82 60.2317 163.018 60.2317H162.692C162.692 59.9856 162.37 59.4495 161.726 58.6233C161.726 56.9006 162.479 56.0393 163.984 56.0393ZM163.659 57.6565V58.9397C164.093 58.9397 164.31 58.7258 164.31 58.2981V57.6565H163.659Z" fill="#FA9E52"/>
<path d="M148.524 44.1125C149.233 44.4055 149.878 45.2668 150.458 46.6965C150.247 47.7688 149.603 48.9495 148.524 50.2385C149.813 50.2385 150.458 51.5276 150.458 54.1057C150.458 54.9495 150.244 56.1331 149.816 57.6565H151.425C152.72 57.6565 153.367 58.1926 153.367 59.2649C152.266 59.6985 149.793 59.9153 145.949 59.9153H144.657C142.724 59.9153 141.757 59.2678 141.757 57.9729H142.082C142.135 57.762 143.21 57.6565 145.308 57.6565C144.657 56.9006 144.332 55.6116 144.332 53.7893V50.8801C143.5 50.8801 142.75 50.2356 142.082 48.9465C142.082 45.7239 144.229 44.1125 148.524 44.1125ZM144.332 48.9465C144.402 49.3801 144.619 49.5969 144.982 49.5969H146.274C147.563 48.8411 148.208 47.8743 148.208 46.6965V45.7297C146.058 45.7297 144.766 46.6965 144.332 48.6301V48.9465ZM147.558 50.5637C147.558 50.9915 147.235 51.2053 146.591 51.2053V53.4641L146.916 57.3313C146.699 57.3313 146.591 57.4397 146.591 57.6565H148.208V56.6897C148.208 56.0452 148.1 55.7229 147.883 55.7229L148.208 54.1057V51.2053C148.208 50.7776 147.991 50.5637 147.558 50.5637Z" fill="#FA9E52"/>
<path d="M126.341 47.0129H127.624C128.058 47.0833 128.274 47.3 128.274 47.6633C128.274 48.1965 127.952 49.4856 127.308 51.5305C129.452 53.9797 130.524 55.2688 130.524 55.3977C130.313 55.8137 130.208 56.136 130.208 56.3645H128.916L126.016 53.4641H125.69C125.099 55.3977 124.454 56.3645 123.757 56.3645C123.341 56.1477 123.019 56.0393 122.79 56.0393V55.0725C122.79 54.6096 123.974 52.0315 126.341 47.3381V47.0129ZM133.75 47.0129H134.4C135.045 47.0129 135.581 47.9797 136.009 49.9133V56.6897L135.684 58.2981H134.4C133.967 58.2981 133.75 58.0842 133.75 57.6565V52.4973H130.85C129.736 52.4973 129.092 52.175 128.916 51.5305V50.2385H129.241L131.491 50.5637C132.347 50.3469 133.1 50.2385 133.75 50.2385V49.2717C133.75 48.7854 133.645 48.3547 133.434 47.9797C133.645 47.5637 133.75 47.2415 133.75 47.0129ZM138.584 47.0129C139.703 47.0129 140.351 49.0549 140.526 53.1389H140.201C140.201 53.3557 140.31 53.4641 140.526 53.4641L140.201 56.6897V60.5569L138.584 60.8821H138.268L137.942 59.2649V49.9133L137.617 47.6633L138.584 47.0129Z" fill="#FA9E52"/>
<path d="M113.808 43.7874C115.958 43.7874 117.033 44.3264 117.033 45.4045C116.605 45.469 116.392 45.6829 116.392 46.0461C118.325 47.4055 119.292 48.5891 119.292 49.5969V49.9133H118.325C117.511 49.2161 116.436 48.5715 115.1 47.9797C113.787 49.843 112.929 50.8098 112.524 50.8801C112.103 50.6692 111.777 50.5637 111.549 50.5637V49.9133C111.549 49.134 112.41 47.7395 114.133 45.7297C111.555 45.7297 110.266 45.4045 110.266 44.7542V44.1125C112.17 43.8958 113.351 43.7874 113.808 43.7874ZM119.617 53.4641C120.906 53.7454 121.551 54.0676 121.551 54.4309V55.3977C118.926 55.6672 117.42 55.8811 117.033 56.0393C117.461 57.387 117.675 59.429 117.675 62.1653L116.708 62.8157C115.636 62.8157 115.1 60.5569 115.1 56.0393L113.491 55.7229H109.94C109.63 55.7229 109.308 55.4006 108.974 54.7561V54.1057L110.582 53.7893H118.325C118.806 53.7893 119.236 53.6809 119.617 53.4641Z" fill="#FA9E52"/>
<path d="M96.1328 45.4133C96.5488 45.6301 96.8711 45.7385 97.0996 45.7385V47.3469C95.0781 47.7747 93.4668 47.9885 92.2656 47.9885H91.2988L90.9824 46.3801C91.0469 45.9524 91.2607 45.7385 91.624 45.7385H92.5908C93.4814 45.7385 94.6621 45.6301 96.1328 45.4133ZM97.4248 49.5969L98.0664 50.5637V50.8889C98.0664 51.5803 95.8105 52.2249 91.2988 52.8225C90.3086 52.5413 89.7725 52.1106 89.6904 51.5305C89.9072 51.1145 90.0156 50.7922 90.0156 50.5637C91.1172 50.5637 93.5869 50.2415 97.4248 49.5969ZM101.292 49.9221H101.934C102.578 50.0569 102.9 50.9153 102.9 52.4973V53.4641C104.4 53.4641 105.15 53.2502 105.15 52.8225L104.834 51.2141L105.476 50.8889H106.117C106.873 50.8889 107.412 53.6809 107.734 59.2649L107.084 59.5901H106.768C105.906 59.2385 105.476 58.4856 105.476 57.3313V55.3977C105.048 55.3977 104.834 55.2922 104.834 55.0813C103.756 55.0813 103.217 55.9397 103.217 57.6565C103.217 58.7288 103.003 59.2649 102.575 59.2649H101.934C101.072 57.2727 100.642 54.2668 100.642 50.2473L101.292 49.9221ZM95.8076 54.4309H96.458C96.792 54.4309 97.2197 54.8616 97.7412 55.7229V56.0481C97.1553 58.6204 95.9746 59.9065 94.1992 59.9065C92.9102 59.467 92.2656 58.6086 92.2656 57.3313V56.0481C92.2656 55.2981 93.4463 54.759 95.8076 54.4309ZM94.1992 57.3313V57.9729C94.7734 57.9729 95.3096 57.4368 95.8076 56.3645H95.166C94.8555 56.3645 94.5332 56.6868 94.1992 57.3313Z" fill="#FA9E52"/>
<path d="M81.0244 47.3118H82.3164C82.9668 47.5286 83.292 48.176 83.292 49.2542V51.1877H85.876V47.9622H87.4844C87.918 48.8 88.2432 52.137 88.46 57.9729C88.2432 58.3538 88.1348 58.7874 88.1348 59.2737C86.8398 59.2737 86.1924 58.304 86.1924 56.3645C86.1924 56.095 86.0869 55.0168 85.876 53.1301H83.292L83.6084 57.0061V57.6565H82.3164C81.6836 57.6565 81.2529 56.0393 81.0244 52.8049V47.3118ZM77.4736 47.637V47.9622C77.8896 47.7454 78.2119 47.637 78.4404 47.637C78.8564 47.8538 79.1787 47.9622 79.4072 47.9622V49.2542C76.9814 49.6819 75.3672 49.8958 74.5645 49.8958V54.0969H79.4072L79.7324 55.7141C79.5156 55.9309 78.2236 56.1477 75.8564 56.3645C73.4893 56.3645 72.3057 55.6086 72.3057 54.0969V49.5793L71.6553 48.6038C71.7197 48.176 71.9365 47.9622 72.3057 47.9622H75.8564L77.4736 47.637Z" fill="#FA9E52"/>
<path d="M65.582 42.8206H65.9072L66.5488 43.1458C66.5488 42.929 66.6572 42.8206 66.874 42.8206V43.7874C66.874 44.3499 64.6152 44.7805 60.0977 45.0793L59.4561 44.1125C59.4561 43.2512 61.498 42.8206 65.582 42.8206ZM63.6484 47.6633C64.7207 47.7161 65.2568 47.9299 65.2568 48.3049V49.9133C68.2686 51.009 69.7744 51.8704 69.7744 52.4973C69.7744 52.925 69.5576 53.1389 69.124 53.1389C68.0459 53.1389 66.3291 52.6028 63.9736 51.5305C63.1123 53.5227 62.6816 54.5979 62.6816 54.7561H62.3564L60.748 54.4309V53.4641C61.8203 51.6477 62.3564 50.3586 62.3564 49.5969C62.1982 49.5969 61.5537 49.7024 60.4229 49.9133C59.7783 49.9133 59.4561 49.3772 59.4561 48.3049C60.4229 47.8772 61.8203 47.6633 63.6484 47.6633ZM65.582 53.7893C66.4434 54.6155 66.874 56.01 66.874 57.9729V58.6233L66.5488 59.2649C69.127 59.2649 70.416 59.5872 70.416 60.2317V60.8821C68.7988 61.3098 67.2959 61.5237 65.9072 61.5237C64.2549 61.5237 62.3184 61.3098 60.0977 60.8821V59.2649C60.5312 59.2649 60.748 59.1565 60.748 58.9397L63.0068 59.2649H64.6152C64.6152 58.7844 64.7236 58.3538 64.9404 57.9729C64.5068 55.9338 64.29 54.6448 64.29 54.1057C64.4014 54.1057 64.832 54.0002 65.582 53.7893Z" fill="#FA9E52"/>
<path d="M48.8389 35.0862C49.2549 35.303 49.5771 35.4114 49.8057 35.4114V37.6614C49.8057 39.6008 48.8389 40.5706 46.9053 40.5706H44.9717V41.5374H45.2881C45.8096 41.5374 47.4209 41.429 50.1221 41.2122L50.7725 42.179C50.7725 43.1223 48.8389 43.6584 44.9717 43.7874C43.4658 43.301 42.7129 42.3342 42.7129 40.887V39.2786C45.9355 38.7043 47.5469 38.1653 47.5469 37.6614V37.345H45.2881C43.7822 37.345 43.0293 36.7004 43.0293 35.4114H45.2881C46.1846 35.4114 47.3682 35.303 48.8389 35.0862ZM42.0625 45.0793L44.3213 45.4045H47.2217C48.1182 45.4045 49.3018 45.2961 50.7725 45.0793C51.6338 45.4016 52.0645 45.7239 52.0645 46.0461C52.0645 46.386 51.6338 46.8167 50.7725 47.3381H43.3545C42.0654 47.3381 41.4209 46.802 41.4209 45.7297C41.8486 45.7297 42.0625 45.5129 42.0625 45.0793ZM48.8389 48.3049C49.6943 48.3049 50.1221 49.7024 50.1221 52.4973V52.8225C49.0381 54.1116 47.6436 54.7561 45.9385 54.7561V55.0725C45.9385 56.3616 46.9053 57.0061 48.8389 57.0061C49.7236 57.0061 50.582 57.1145 51.4141 57.3313V57.6565L51.0889 59.2649C46.1494 59.2649 43.6797 58.4065 43.6797 56.6897L43.3545 53.7893C45.9502 52.9924 47.4561 52.2395 47.8721 51.5305C47.6553 51.1145 47.5469 50.7922 47.5469 50.5637L44.3213 50.8801H43.9961L43.6797 49.2717C45.6953 48.6272 47.415 48.3049 48.8389 48.3049Z" fill="#FA9E52"/>
<path d="M34.3809 43.1545H35.0312C38.0371 43.1545 39.54 43.5852 39.54 44.4465C39.54 44.8743 39.3232 45.0881 38.8896 45.0881H34.0645V47.3469H39.2148V47.6633C39.2148 47.8801 39.1064 47.9885 38.8896 47.9885L39.2148 48.6301V48.9553H38.8896C37.8174 48.9553 36.209 49.0637 34.0645 49.2805C34.0645 49.5852 34.3867 49.9075 35.0312 50.2473L38.8896 49.9221L39.54 50.8889C39.54 51.5334 38.1426 51.9641 35.3477 52.1809C33.4141 52.1809 32.4473 51.3196 32.4473 49.5969C32.2363 47.7747 32.1309 46.2717 32.1309 45.0881H32.4473L32.1309 44.4465V43.4797L34.3809 43.1545ZM31.1641 55.3977C33.7422 55.5149 35.0312 55.7317 35.0312 56.0481C35.2422 56.0481 35.3477 55.9397 35.3477 55.7229C38.5703 55.9397 40.1816 56.3674 40.1816 57.0061V57.6565C39.4316 57.8674 39.001 57.9729 38.8896 57.9729C33.5225 57.8674 30.8389 57.3313 30.8389 56.3645C31.0557 55.9485 31.1641 55.6262 31.1641 55.3977Z" fill="#FA9E52"/>
<path d="M27.3496 45.7297H27.9912C28.4189 45.7297 28.6328 46.052 28.6328 46.6965C28.6328 49.8196 28.9551 53.2561 29.5996 57.0061L28.6328 57.6565C27.3438 57.6565 26.6992 54.1086 26.6992 47.0129V46.3713C26.7695 45.9436 26.9863 45.7297 27.3496 45.7297ZM20.2568 47.0129H21.2236C22.5127 47.927 23.1572 48.7883 23.1572 49.5969C22.3428 52.3918 21.0508 53.7893 19.2812 53.7893H18.9648C17.8867 53.303 17.1338 52.4417 16.7061 51.2053C17.1455 49.3538 18.3291 47.9563 20.2568 47.0129ZM18.6396 50.2385V52.1721H19.6064C20.8955 51.2991 21.54 50.2239 21.54 48.9465C21.1123 48.9465 20.8984 48.8411 20.8984 48.6301C19.5566 49.0637 18.8037 49.5999 18.6396 50.2385Z" fill="#FA9E52"/>
<path d="M4.82324 44.429C6.1123 44.429 6.75684 45.0735 6.75684 46.3625V47.6545H7.08203L9.34082 47.3293V45.0706C9.40527 44.6428 9.61914 44.429 9.98242 44.429H10.3076C10.8701 44.429 11.3008 45.2874 11.5996 47.0042V53.1389C11.5996 54.2522 11.2773 54.8967 10.6328 55.0725C9.77148 54.7502 9.34082 54.428 9.34082 54.1057V49.9133H6.75684C6.75684 51.8469 5.79004 52.8137 3.85645 52.8137C3.53418 53.0305 2.88965 53.1389 1.92285 53.1389C0.844727 53.1389 0.305664 50.6633 0.305664 45.7122C1.2959 44.8567 2.80176 44.429 4.82324 44.429ZM13.8584 44.429C14.7842 44.429 15.3203 45.8264 15.4668 48.6213C15.4668 54.2112 15.0391 57.0061 14.1836 57.0061C13.5332 56.8538 13.1025 56.4231 12.8916 55.7141C13.1025 51.8938 13.208 48.7766 13.208 46.3625V45.0706C13.2783 44.6428 13.4951 44.429 13.8584 44.429ZM2.56445 47.3293V50.5549L4.82324 50.2297V47.0042H4.18164L2.56445 47.3293Z" fill="#FA9E52"/>
<path d="M130.981 6.85376H131.307C131.641 6.85376 132.068 7.28442 132.59 8.14575V10.4045L135.815 10.0793V8.78735L135.499 7.17896L136.141 6.85376H136.782C137.491 6.85376 137.922 8.25122 138.074 11.0461V12.6633C138.074 13.9524 137.321 14.5969 135.815 14.5969V15.5637H140.008C140.441 15.6282 140.658 15.842 140.658 16.2053V17.1721C139.756 17.6643 136.53 18.095 130.981 18.4641L130.015 17.1721C130.015 16.5276 131.412 16.0969 134.207 15.8801C133.99 15.4641 133.882 15.1418 133.882 14.9133H132.273C131.734 14.2688 131.304 13.9465 130.981 13.9465L130.34 7.17896L130.981 6.85376ZM133.882 12.3381V12.6633H135.815V12.3381H133.882ZM137.107 18.7893C138.18 18.7893 138.716 20.0784 138.716 22.6565C138.646 23.1311 137.034 23.884 133.882 24.9153V25.5569H138.399C138.704 25.5569 139.026 25.8792 139.366 26.5237V27.4905L135.174 28.1321C132.807 28.1321 131.623 26.9514 131.623 24.5901V23.6233C134.852 22.469 136.466 21.7161 136.466 21.3645L133.24 21.6897H132.915C132.423 21.6897 132.101 21.1506 131.948 20.0725C132.663 19.7151 134.383 19.2874 137.107 18.7893Z" fill="#FA9E52"/>
<path d="M124.258 3.27661C125.236 3.69849 125.772 4.12915 125.866 4.5686V4.8938C125.866 5.36841 124.899 5.69067 122.966 5.8606V5.54419C122.608 5.75513 122.069 5.8606 121.349 5.8606V7.47778H121.674C121.996 7.47778 123.502 7.36938 126.191 7.15259L126.833 8.12817V8.76978C126.833 9.19751 126.402 9.41138 125.541 9.41138V12.3206H127.809C128.113 12.3206 128.436 12.6428 128.775 13.2874V13.9377C128.775 14.3655 128.559 14.5793 128.125 14.5793H121.99C120.344 14.5793 119.377 14.1487 119.09 13.2874V12.3206H123.282V9.73657H121.674C119.951 9.73657 119.09 8.66138 119.09 6.51099C119.09 5.54419 118.981 4.89673 118.765 4.5686C118.981 4.15259 119.09 3.83032 119.09 3.60181H121.349C122.122 3.60181 123.092 3.49341 124.258 3.27661ZM120.382 16.8381H125.225C125.559 16.8381 125.989 17.2688 126.517 18.1301V20.3977C125.966 21.47 125.104 22.0061 123.933 22.0061H121.349V24.9153H121.674C121.861 24.9153 122.723 24.8069 124.258 24.5901C125.236 25.0061 125.772 25.4368 125.866 25.8821C125.866 26.1926 125.544 26.5149 124.899 26.8489H120.057C119.354 26.8489 118.923 25.5569 118.765 22.9729L119.09 20.7141H121.349C122.995 20.7141 123.965 20.2834 124.258 19.4221V18.7805L123.607 19.1057H121.99L119.731 18.4553V17.4885C119.802 17.0549 120.019 16.8381 120.382 16.8381Z" fill="#FA9E52"/>
<path d="M109.123 10.7297H109.765C110.192 10.7297 110.406 11.052 110.406 11.6965C110.406 14.8196 110.729 18.2561 111.373 22.0061L110.406 22.6565C109.117 22.6565 108.473 19.1086 108.473 12.0129V11.3713C108.543 10.9436 108.76 10.7297 109.123 10.7297ZM102.03 12.0129H102.997C104.286 12.927 104.931 13.7883 104.931 14.5969C104.116 17.3918 102.824 18.7893 101.055 18.7893H100.738C99.6602 18.303 98.9072 17.4417 98.4795 16.2053C98.9189 14.3538 100.103 12.9563 102.03 12.0129ZM100.413 15.2385V17.1721H101.38C102.669 16.2991 103.313 15.2239 103.313 13.9465C102.886 13.9465 102.672 13.8411 102.672 13.6301C101.33 14.0637 100.577 14.5999 100.413 15.2385Z" fill="#FA9E52"/>
<path d="M84.3467 8.14575H89.1807C89.626 8.2395 90.0566 8.77563 90.4727 9.75415C90.4727 11.5999 89.7197 13.2141 88.2139 14.5969C87.6748 14.5969 87.3525 14.1663 87.2471 13.3049C87.8916 12.2034 88.2139 11.1282 88.2139 10.0793H87.8975C87.4111 10.0793 86.9805 10.1877 86.6055 10.4045C85.0996 10.1174 84.3467 9.79517 84.3467 9.43774V8.14575ZM92.7314 8.14575H93.373L94.0146 10.4045V11.6965H96.9238L97.2402 12.9797C96.3613 13.4133 95.7168 13.6301 95.3066 13.6301V13.3049C94.1875 13.3049 93.543 14.0579 93.373 15.5637H92.7314C92.5615 15.5637 92.2393 15.2415 91.7646 14.5969L92.0811 10.7297V8.78735C92.1514 8.35962 92.3682 8.14575 92.7314 8.14575ZM87.2471 16.8469H94.3398C94.3398 17.1985 94.5566 17.5237 94.9902 17.8225C94.9902 18.678 93.8066 19.1057 91.4395 19.1057H90.1475L87.8975 18.7893V20.0725L88.2139 20.7229L89.8311 20.3977H91.7646C91.9756 20.3977 92.0811 20.5061 92.0811 20.7229L92.7314 20.3977C93.1592 20.4622 93.373 20.676 93.373 21.0393V21.3645C93.373 22.2258 91.5479 22.6565 87.8975 22.6565V22.9729H92.7314C93.0361 22.9729 93.3584 23.2952 93.6982 23.9397V24.5901L89.8311 24.9153H88.2139C87.0596 24.9153 86.3066 24.4846 85.9551 23.6233V19.7561C85.9551 19.3459 86.3857 18.3762 87.2471 16.8469Z" fill="#FA9E52"/>
<path d="M73.7295 0.0861816C74.1455 0.302979 74.4678 0.411377 74.6963 0.411377V2.66138C74.6963 4.60083 73.7295 5.57056 71.7959 5.57056H69.8623V6.53735H70.1787C70.7002 6.53735 72.3115 6.42896 75.0127 6.21216L75.6631 7.17896C75.6631 8.12231 73.7295 8.65845 69.8623 8.78735C68.3564 8.30103 67.6035 7.33423 67.6035 5.88696V4.27856C70.8262 3.70435 72.4375 3.16528 72.4375 2.66138V2.34497H70.1787C68.6729 2.34497 67.9199 1.70044 67.9199 0.411377H70.1787C71.0752 0.411377 72.2588 0.302979 73.7295 0.0861816ZM66.9531 10.0793L69.2119 10.4045H72.1123C73.0088 10.4045 74.1924 10.2961 75.6631 10.0793C76.5244 10.4016 76.9551 10.7239 76.9551 11.0461C76.9551 11.386 76.5244 11.8167 75.6631 12.3381H68.2451C66.9561 12.3381 66.3115 11.802 66.3115 10.7297C66.7393 10.7297 66.9531 10.5129 66.9531 10.0793ZM73.7295 13.3049C74.585 13.3049 75.0127 14.7024 75.0127 17.4973V17.8225C73.9287 19.1116 72.5342 19.7561 70.8291 19.7561V20.0725C70.8291 21.3616 71.7959 22.0061 73.7295 22.0061C74.6143 22.0061 75.4727 22.1145 76.3047 22.3313V22.6565L75.9795 24.2649C71.04 24.2649 68.5703 23.4065 68.5703 21.6897L68.2451 18.7893C70.8408 17.9924 72.3467 17.2395 72.7627 16.5305C72.5459 16.1145 72.4375 15.7922 72.4375 15.5637L69.2119 15.8801H68.8867L68.5703 14.2717C70.5859 13.6272 72.3057 13.3049 73.7295 13.3049Z" fill="#FA9E52"/>
<path d="M63.4639 11.0461H64.1055C64.5391 11.0461 64.8613 11.6907 65.0723 12.9797C64.8613 17.2629 64.7559 20.1663 64.7559 21.6897L64.4307 22.9729H63.4639C63.1533 22.9729 62.8311 22.6506 62.4971 22.0061C62.7139 18.0452 62.8223 14.7141 62.8223 12.0129V11.6965C62.8867 11.2629 63.1006 11.0461 63.4639 11.0461ZM51.5371 12.0129L53.7871 12.3381H56.6963L57.0127 13.9465V14.5969L55.7295 17.1721C57.6631 17.8811 58.6299 18.8479 58.6299 20.0725L57.9795 20.3977C57.1943 20.3977 56.2275 19.967 55.0791 19.1057H54.7627C54.2705 19.1057 53.9453 19.6448 53.7871 20.7229H52.8203C52.3926 20.7229 52.1787 20.5061 52.1787 20.0725V19.7561C52.1787 19.3694 53.04 17.5413 54.7627 14.2717C52.3955 14.2717 51.2119 13.9495 51.2119 13.3049V12.6633L51.5371 12.0129Z" fill="#FA9E52"/>
<path d="M44.1807 11.0549C45.3408 11.0549 46.0938 12.9885 46.4395 16.8557C48.8008 16.8557 49.9814 17.178 49.9814 17.8225V18.7893L48.373 19.1145H46.4395V22.3313C46.4395 22.759 46.2256 22.9729 45.7979 22.9729H45.4727C44.6113 22.9729 43.9668 19.1086 43.5391 11.3801L44.1807 11.0549ZM39.0303 13.3137C40.7471 14.3274 41.6055 15.2942 41.6055 16.2141V16.5305C41.3418 19.1086 40.0527 20.3977 37.7383 20.3977C35.377 20.3977 34.1963 19.4309 34.1963 17.4973V16.8557C35.5205 14.4944 37.1318 13.3137 39.0303 13.3137ZM36.1299 18.1477L36.7715 18.4641H38.3887C39.2441 18.1184 39.6719 17.3684 39.6719 16.2141L39.3467 15.5637C37.2021 15.5637 36.1299 16.425 36.1299 18.1477Z" fill="#FA9E52"/>
<path d="M28.4395 9.43774H29.7314C30.2822 12.2327 30.7129 13.6301 31.0234 13.6301C32.3125 13.8411 32.957 14.1633 32.957 14.5969V15.5637H30.6982L30.373 17.4973H29.4062C28.7617 17.4973 28.4395 15.7776 28.4395 12.3381V9.43774ZM20.0547 10.0793L21.6719 10.4045H23.9307C24.1416 10.4045 24.2471 10.5129 24.2471 10.7297C24.6631 10.5129 24.9854 10.4045 25.2139 10.4045C25.9229 10.6213 26.3535 11.052 26.5059 11.6965C26.5059 12.5227 26.0752 14.3479 25.2139 17.1721H24.5723C24.2617 17.1721 23.9395 16.8499 23.6055 16.2053C23.6055 15.9241 23.8193 14.7434 24.2471 12.6633V12.3381H20.3799C19.8877 12.3381 19.5654 11.802 19.4131 10.7297C19.8408 10.7297 20.0547 10.5129 20.0547 10.0793ZM26.8311 20.3977H27.1475C27.8389 20.9133 28.8086 21.2356 30.0566 21.3645V23.6233C29.8398 25.3401 28.8701 26.1985 27.1475 26.1985C25.4834 26.1985 24.4111 25.6624 23.9307 24.5901V24.2649C23.9307 22.8352 24.8975 21.5461 26.8311 20.3977ZM25.8643 23.6233V23.9397C25.9287 24.3733 26.1426 24.5901 26.5059 24.5901C27.7949 24.3733 28.4395 24.051 28.4395 23.6233V22.0061H27.4727C27.1855 22.0061 26.6494 22.5452 25.8643 23.6233Z" fill="#FA9E52"/>
<path d="M85.6863 111.342C87.5035 111.342 89.8163 112.674 91.2205 112.173C93.1775 109.75 97.6624 105.155 97.3941 105.4C97.1784 105.612 96.9581 105.83 96.733 106.055C97.1396 105.649 97.3453 105.444 97.3941 105.4C104.033 98.874 106.342 98.4681 111.601 100.196C117.031 101.98 132.933 106.055 134.915 119.359C135.652 124.301 127.129 130.174 122.834 130.174C118.539 130.174 113.914 127.531 111.601 127.862C109.288 128.192 118.209 142.069 122.834 147.685C132.416 170.813 126.469 180.725 124.486 186.672C122.9 191.43 113.693 196.364 109.288 198.236C101.359 201.319 81.5894 207.376 58.5939 199.975C35.5985 192.575 37.2619 163.214 41.8875 150.328C45.0813 141.738 49.5526 125.681 41.8875 130.174C32.3061 135.791 22.3941 137.113 17.7685 136.121C13.143 135.13 25.5544 113.985 33.1535 108.699C39.2328 104.47 49.0459 108.919 51.4688 112.994C52.9006 111.892 58.5778 108.699 69.971 108.699C76.4353 108.699 83.8692 111.342 85.6863 111.342Z" fill="white"/>
<path d="M87.8453 155.372C74.96 146.782 81.4577 125.967 87.8453 119.029C91.5898 113.192 100.136 101.187 104.365 99.8658C109.651 98.2138 121.876 105.813 127.493 107.795C133.109 109.778 134.431 120.681 134.101 123.324C133.77 125.967 127.493 132.244 118.902 128.941C112.03 126.297 110.532 128.941 110.643 130.593C108.33 135.218 119.985 142.595 121.876 146.782C125.576 154.976 121.435 157.685 118.902 158.015C114.938 162.31 100.731 163.962 87.8453 155.372Z" fill="#FFDABB"/>
<path fill-rule="evenodd" clip-rule="evenodd" d="M80.4565 169.299C81.1586 169.099 81.8896 169.507 82.0894 170.209C82.5462 171.814 82.5637 174.508 80.8794 176.703C79.1363 178.973 75.8706 180.336 70.5364 179.815C69.81 179.744 69.2786 179.098 69.3495 178.371C69.4204 177.645 70.0668 177.113 70.7932 177.184C75.6125 177.655 77.7995 176.374 78.7828 175.093C79.8249 173.736 79.8424 171.969 79.5471 170.932C79.3474 170.23 79.7545 169.499 80.4565 169.299Z" fill="#FA9E52"/>
<path fill-rule="evenodd" clip-rule="evenodd" d="M81.2713 113.31C67.579 108.746 57.3966 112.541 54.2873 114.708C53.3891 115.334 52.1535 115.113 51.5275 114.215C50.9015 113.317 51.1221 112.081 52.0203 111.455C56.1797 108.556 67.6712 104.598 82.5251 109.549C83.5637 109.895 84.125 111.018 83.7788 112.056C83.4326 113.095 82.3099 113.656 81.2713 113.31Z" fill="#FA9E52"/>
<path fill-rule="evenodd" clip-rule="evenodd" d="M100.409 104.502C97.7175 107.082 95.2583 110.469 93.8301 112.797C93.2575 113.73 92.0368 114.022 91.1037 113.45C90.1705 112.877 89.8783 111.656 90.4509 110.723C91.9962 108.205 94.6582 104.522 97.6658 101.639C99.1671 100.201 100.831 98.8861 102.555 98.0376C104.272 97.1927 106.257 96.7118 108.239 97.3062C111.682 98.3391 115.423 99.9587 118.809 101.487C119.515 101.805 120.203 102.118 120.87 102.422C123.467 103.605 125.738 104.639 127.499 105.268C130.409 106.307 132.716 108.717 134.269 111.55C135.835 114.405 136.744 117.872 136.744 121.341C136.744 124.108 135.231 126.255 133.479 127.818C131.73 129.378 129.535 130.55 127.652 131.406C125.31 132.471 122.368 132.439 119.778 132.067C117.498 131.741 115.238 131.113 113.418 130.451C113.543 130.874 113.721 131.369 113.957 131.931C115.266 135.049 118.036 139.505 121.412 143.524C123.364 145.849 125.051 149.24 126.38 153.046C127.72 156.882 128.741 161.273 129.295 165.699C129.847 170.12 129.94 174.634 129.385 178.706C128.833 182.749 127.619 186.529 125.412 189.313C121.359 194.422 117.832 196.261 114.889 197.438C114.432 197.621 114.012 197.783 113.625 197.932C111.495 198.751 110.355 199.19 109.318 200.745C108.711 201.656 107.48 201.902 106.569 201.294C105.658 200.687 105.412 199.456 106.02 198.545C107.807 195.864 110.22 194.961 112.383 194.153C112.735 194.021 113.081 193.891 113.417 193.757C115.843 192.787 118.758 191.321 122.305 186.849C123.897 184.842 124.954 181.85 125.456 178.17C125.954 174.519 125.882 170.36 125.361 166.191C124.84 162.026 123.879 157.909 122.637 154.353C121.385 150.767 119.892 147.88 118.376 146.074C114.813 141.834 111.801 137.039 110.302 133.466C109.923 132.565 109.623 131.698 109.438 130.907C109.263 130.154 109.151 129.296 109.305 128.491C109.476 127.594 110.042 126.581 111.261 126.193C112.258 125.875 113.265 126.136 114.022 126.439C115.717 127.117 118.042 127.813 120.34 128.143C122.706 128.482 124.719 128.384 126.012 127.797C127.763 127 129.533 126.025 130.84 124.859C132.144 123.696 132.779 122.539 132.779 121.341C132.779 118.533 132.036 115.723 130.793 113.457C129.538 111.169 127.88 109.614 126.165 109.001C124.23 108.31 121.749 107.18 119.133 105.988C118.488 105.694 117.834 105.396 117.179 105.101C113.792 103.572 110.264 102.053 107.099 101.104C106.438 100.905 105.532 100.992 104.306 101.595C103.088 102.195 101.758 103.209 100.409 104.502Z" fill="#FA9E52"/>
<path fill-rule="evenodd" clip-rule="evenodd" d="M41.5166 105.572C46.0824 106.506 49.7427 109.646 51.7391 112.187C52.4155 113.048 52.2659 114.294 51.4051 114.971C50.5442 115.647 49.2979 115.498 48.6215 114.637C46.9836 112.552 44.069 110.141 40.7219 109.456C37.5934 108.816 33.6823 109.597 29.5846 114.659C24.0053 121.551 20.0537 128.346 19.1228 132.814C18.6479 135.093 19.0884 136.058 19.5335 136.441C20.0644 136.898 21.5213 137.389 24.9516 136.591C31.7876 135.001 35.7235 132.793 38.3514 131.24C38.5028 131.15 38.6547 131.06 38.8065 130.969C39.8963 130.32 40.9878 129.67 41.968 129.346C42.5876 129.14 43.2942 129.012 44.0586 129.119C44.8383 129.227 45.5172 129.557 46.111 130.019C46.8581 130.6 47.1147 131.428 47.2179 131.975C47.329 132.565 47.3327 133.209 47.293 133.832C47.2131 135.088 46.9264 136.664 46.5399 138.4C46.0182 140.744 45.2642 143.593 44.4537 146.655C44.0631 148.131 43.6592 149.657 43.2619 151.2C42.0262 155.999 40.8307 161.044 40.1654 165.645C39.4914 170.307 39.4056 174.247 40.1902 176.957C43.6669 188.968 54.9624 200.61 68.3069 200.306C69.4015 200.281 70.309 201.149 70.3338 202.243C70.3587 203.338 69.4916 204.245 68.397 204.27C52.6668 204.628 40.1739 191.16 36.3818 178.06C35.3493 174.493 35.5526 169.843 36.2415 165.078C36.9391 160.253 38.1803 155.035 39.4225 150.211C39.8392 148.593 40.2536 147.027 40.649 145.533C41.4458 142.524 42.1653 139.806 42.6698 137.539C43.0474 135.842 43.2768 134.514 43.3363 133.58C43.3495 133.373 43.3529 133.204 43.3505 133.069C43.313 133.079 43.2681 133.092 43.215 133.109C42.6736 133.289 41.9964 133.689 40.7664 134.418C40.6397 134.493 40.5072 134.571 40.3683 134.653C37.5447 136.322 33.2208 138.739 25.8497 140.453C22.1766 141.307 19.0079 141.22 16.9473 139.446C14.8009 137.599 14.6838 134.682 15.2414 132.005C16.3755 126.562 20.849 119.149 26.5031 112.165C31.3921 106.125 36.7321 104.593 41.5166 105.572ZM43.3105 132.663C43.3108 132.662 43.3131 132.669 43.3166 132.685C43.312 132.671 43.3102 132.663 43.3105 132.663Z" fill="#FA9E52"/>
<path d="M73.9686 163.962C72.3828 159.469 77.7131 159.227 80.5766 159.667C82.7792 159.667 87.3166 160.526 87.8453 163.962C88.506 168.257 84.2109 169.579 82.2285 170.24C80.2462 170.901 75.951 169.579 73.9686 163.962Z" fill="#FA9E52"/>
<path d="M72.9775 139.678C72.9775 141.229 71.942 142.487 70.6647 142.487C69.3874 142.487 68.3519 141.229 68.3519 139.678C68.3519 138.127 69.3874 136.87 70.6647 136.87C71.942 136.87 72.9775 138.127 72.9775 139.678Z" fill="#FA9E52"/>
<path d="M91.3144 140.174C91.3144 141.451 90.3899 142.487 89.2494 142.487C88.109 142.487 87.1844 141.451 87.1844 140.174C87.1844 138.897 88.109 137.861 89.2494 137.861C90.3899 137.861 91.3144 138.897 91.3144 140.174Z" fill="#FA9E52"/>
<path fill-rule="evenodd" clip-rule="evenodd" d="M80.6161 168.62C81.3281 168.46 82.0356 168.906 82.1963 169.618C82.5488 171.179 83.4666 173.532 84.9379 175.3C86.3829 177.037 88.2052 178.057 90.5324 177.54C91.2449 177.382 91.9508 177.831 92.1092 178.543C92.2675 179.256 91.8182 179.962 91.1057 180.12C87.4857 180.925 84.7376 179.192 82.9062 176.991C81.101 174.822 80.0365 172.054 79.6181 170.201C79.4573 169.489 79.9041 168.781 80.6161 168.62Z" fill="#FA9E52"/>
<path fill-rule="evenodd" clip-rule="evenodd" d="M73.6495 178.83C73.6495 178.283 74.0933 177.839 74.6407 177.839C75.5646 177.839 76.1294 178.435 76.4606 178.963C76.7363 179.403 76.9575 179.968 77.1488 180.456C77.1749 180.523 77.2005 180.588 77.2256 180.651C77.7048 181.862 78.1433 182.717 78.9736 183.049C79.2821 183.173 79.7763 183.204 80.4557 183.062C81.1176 182.923 81.8593 182.641 82.5893 182.261C83.3169 181.882 84.0028 181.422 84.5552 180.953C85.1221 180.471 85.4869 180.031 85.6484 179.708C85.8932 179.219 86.4886 179.02 86.9782 179.265C87.4678 179.51 87.6663 180.105 87.4215 180.595C87.0893 181.259 86.4984 181.903 85.8388 182.464C85.1648 183.036 84.3535 183.577 83.5044 184.019C82.6578 184.46 81.7433 184.818 80.8611 185.002C79.9962 185.183 79.0581 185.218 78.2373 184.89C76.5095 184.199 75.8193 182.485 75.3824 181.381C75.356 181.314 75.3306 181.25 75.306 181.188C75.0984 180.661 74.951 180.287 74.7808 180.016C74.7042 179.893 74.6511 179.841 74.6275 179.821C74.0862 179.814 73.6495 179.373 73.6495 178.83Z" fill="#FA9E52"/>
<path fill-rule="evenodd" clip-rule="evenodd" d="M47.2178 196.818C47.3944 196.663 47.546 196.474 47.6619 196.254C47.7893 196.065 47.8867 195.89 47.951 195.751C47.9697 195.711 48.0135 195.615 48.0527 195.493L48.0528 195.493C48.067 195.449 48.1184 195.29 48.14 195.08C48.1496 194.987 48.1714 194.733 48.0978 194.42C48.0245 194.108 47.7589 193.389 46.9302 193.043C46.1817 192.731 45.5485 192.977 45.3553 193.064C45.1164 193.171 44.955 193.301 44.8902 193.355C44.7482 193.474 44.6546 193.587 44.6257 193.622C44.5502 193.714 44.4956 193.797 44.4717 193.834C44.4147 193.921 44.354 194.026 44.2908 194.143C43.8089 194.624 42.8319 195.225 41.6254 195.873C41.263 196.068 40.9252 196.244 40.5953 196.416C40.3894 196.523 40.1867 196.629 39.9829 196.737C39.5138 196.984 38.9901 197.268 38.6165 197.533C38.5719 197.564 38.522 197.6 38.4674 197.638C37.9277 198.02 36.9239 198.73 35.8729 199.575C34.7467 200.481 33.419 201.657 32.5455 202.854C32.356 203.113 32.1239 203.413 31.8623 203.752C30.3723 205.679 27.9244 208.844 26.9373 212.793C25.7657 217.48 26.938 222.679 27.5155 224.988C27.9592 226.762 28.5863 229.038 30.1948 231.404C30.7579 232.232 31.5669 233.181 32.4911 234.005C33.3263 234.75 34.3894 235.513 35.5635 235.911C35.7953 236.032 36.0059 236.104 36.1256 236.143C36.3817 236.228 36.658 236.298 36.9137 236.354C37.4282 236.469 38.0098 236.565 38.4836 236.639C38.645 236.665 38.7878 236.687 38.9128 236.706C39.1707 236.828 39.4592 236.897 39.7638 236.897C39.8584 236.897 39.9693 236.896 40.0747 236.889C40.1228 236.886 40.2156 236.879 40.3241 236.861C40.377 236.853 40.4754 236.834 40.5938 236.798L40.5948 236.798C40.6702 236.775 40.9665 236.684 41.2677 236.441C41.4339 236.307 41.6898 236.056 41.8557 235.655C42.0389 235.212 42.0503 234.734 41.9171 234.306C41.7046 233.623 41.2039 233.296 41.114 233.237L41.1085 233.233C40.8562 233.068 40.6143 232.996 40.5779 232.985C40.5763 232.985 40.5751 232.984 40.5743 232.984C40.4384 232.942 40.307 232.917 40.2502 232.906C40.0697 232.871 39.769 232.825 39.4623 232.779C39.339 232.76 39.2147 232.741 39.0969 232.722C38.6333 232.65 38.1576 232.57 37.7746 232.484C37.6301 232.452 37.5196 232.424 37.4404 232.401L37.3044 232.292L36.9216 232.183C36.4678 232.053 35.8323 231.672 35.1297 231.046C34.4528 230.442 33.8576 229.74 33.4733 229.174C32.2734 227.41 31.7799 225.698 31.3618 224.026C30.7825 221.71 29.876 217.386 30.7837 213.755C31.5491 210.693 33.388 208.291 34.8929 206.325C35.195 205.93 35.4837 205.553 35.7475 205.192C36.2973 204.439 37.2802 203.532 38.3578 202.665C39.3081 201.901 40.2175 201.257 40.7585 200.874C40.8132 200.835 40.8642 200.799 40.9111 200.766C41.0356 200.678 41.3228 200.513 41.8348 200.242C41.9978 200.156 42.1841 200.059 42.3833 199.955C42.7347 199.772 43.1265 199.568 43.5032 199.365C44.6528 198.747 46.1421 197.898 47.0956 196.945C47.1376 196.903 47.1783 196.86 47.2178 196.818ZM37.3177 232.36C37.3183 232.359 37.3279 232.363 37.3446 232.37C37.3255 232.364 37.3171 232.36 37.3177 232.36ZM39.5207 236.803C39.5214 236.804 39.5182 236.803 39.5116 236.801C39.5172 236.803 39.5201 236.803 39.5207 236.803Z" fill="#FA9E52"/>
<path fill-rule="evenodd" clip-rule="evenodd" d="M121.811 188.103C121.811 187.008 122.699 186.121 123.794 186.121C125.769 186.121 127.489 186.969 128.835 187.747C129.369 188.055 129.831 188.341 130.253 188.603C131.036 189.088 131.684 189.489 132.401 189.794L132.487 189.83C135.236 191 138.194 192.259 140.917 193.892C144.215 195.871 146.497 199.124 148.014 202.545C149.538 205.981 150.365 209.75 150.653 213.009C150.737 213.954 150.846 214.916 150.957 215.891C151.673 222.197 152.45 229.038 146.73 235.076C144.89 237.019 142.342 239.223 139.398 240.204C139.102 240.303 138.66 240.38 138.378 240.429C138.037 240.487 137.641 240.549 137.294 240.603L137.265 240.608C137.027 240.645 136.822 240.677 136.663 240.703C136.442 240.788 136.202 240.834 135.952 240.834C135.913 240.834 135.854 240.834 135.788 240.83L135.785 240.83C135.745 240.827 135.581 240.817 135.386 240.767L135.383 240.766C135.31 240.747 135.005 240.669 134.69 240.433C134.514 240.302 134.231 240.044 134.05 239.615C133.848 239.138 133.853 238.635 133.998 238.206C134.221 237.55 134.709 237.235 134.788 237.184C134.791 237.183 134.793 237.181 134.795 237.18C134.944 237.082 135.074 237.027 135.129 237.004C135.31 236.929 135.482 236.891 135.515 236.884L135.519 236.883C135.587 236.868 135.657 236.854 135.718 236.843C135.948 236.8 136.301 236.745 136.642 236.692L136.668 236.688C137.026 236.632 137.396 236.575 137.706 236.521C137.919 236.485 138.046 236.459 138.109 236.447C138.159 236.437 138.167 236.435 138.145 236.443C140.154 235.773 142.154 234.142 143.852 232.349C148.219 227.739 147.703 222.906 147.024 216.552C146.915 215.529 146.802 214.466 146.704 213.359C146.447 210.455 145.708 207.123 144.39 204.152C143.066 201.166 141.23 198.704 138.877 197.292C136.402 195.807 133.668 194.642 130.849 193.442C129.852 193.018 128.77 192.351 127.847 191.782C127.486 191.559 127.149 191.352 126.851 191.179C125.615 190.465 124.665 190.086 123.794 190.086C122.699 190.086 121.811 189.198 121.811 188.103ZM135.952 236.87C135.952 236.87 135.953 236.87 135.953 236.87Z" fill="#FA9E52"/>
<path fill-rule="evenodd" clip-rule="evenodd" d="M36.9814 218.023C36.7475 217.737 36.5907 217.383 36.5468 216.988C36.426 215.9 37.2101 214.92 38.2982 214.799C38.9878 214.722 39.5079 215.005 39.7851 215.217C40.0506 215.42 40.2146 215.645 40.299 215.773C40.4714 216.034 40.5812 216.306 40.6469 216.485C40.79 216.874 40.9161 217.359 41.0272 217.852C41.2552 218.863 41.4857 220.202 41.6901 221.576C42.0926 224.28 42.4378 227.413 42.4378 228.693C42.4378 230.777 42.5356 231.696 43.0346 233.692C43.3746 235.052 43.5423 236.441 43.6926 237.687C43.7044 237.785 43.7161 237.881 43.7277 237.977C43.8941 239.346 44.0566 240.548 44.3851 241.674C44.8111 243.135 45.1382 245.923 45.469 248.743C45.4791 248.83 45.4893 248.916 45.4995 249.003C45.8565 252.044 46.2398 255.292 46.7538 257.798C47.0059 259.027 47.0824 260.243 47.1447 261.32C47.148 261.376 47.1513 261.432 47.1545 261.488C47.2149 262.536 47.2674 263.447 47.4213 264.34C47.444 264.472 47.4574 264.619 47.4654 264.761C47.889 265.3 48.0216 266.043 47.7489 266.725C47.6667 266.93 47.5493 267.201 47.387 267.446C47.3126 267.559 47.1462 267.796 46.8687 268.007C46.5817 268.225 45.9188 268.593 45.0697 268.349C44.3093 268.131 43.9551 267.569 43.8422 267.364C43.7079 267.121 43.6476 266.899 43.6206 266.787C43.5633 266.549 43.5439 266.319 43.5347 266.181C43.5173 265.923 43.5154 265.616 43.5141 265.396C43.5139 265.366 43.5137 265.337 43.5135 265.311C43.5117 265.069 43.5065 264.985 43.5086 264.984C43.5091 264.984 43.5099 264.989 43.5113 264.996C43.3199 263.879 43.256 262.761 43.1994 261.77C43.1951 261.696 43.1909 261.622 43.1866 261.549C43.1234 260.457 43.0571 259.507 42.8699 258.595C42.3172 255.9 41.9162 252.484 41.5665 249.505L41.5618 249.465C41.1952 246.343 40.8989 243.882 40.5789 242.785C40.1483 241.308 39.9559 239.804 39.792 238.456C39.7823 238.376 39.7728 238.297 39.7633 238.219C39.6056 236.918 39.4657 235.763 39.1883 234.654C38.6034 232.314 38.473 231.07 38.473 228.693C38.473 227.742 38.1732 224.877 37.7686 222.159C37.5695 220.822 37.3559 219.594 37.1597 218.724C37.0896 218.414 37.0291 218.182 36.9814 218.023ZM36.9109 217.816C36.9109 217.816 36.9124 217.819 36.9151 217.825C36.9123 217.819 36.9109 217.816 36.9109 217.816ZM47.4942 265.959C47.4941 265.959 47.4939 265.957 47.4935 265.953C47.494 265.957 47.4942 265.959 47.4942 265.959Z" fill="#FA9E52"/>
<path fill-rule="evenodd" clip-rule="evenodd" d="M130.32 215.505C128.567 215.292 126.438 215.135 125.509 215.215C121.417 215.567 117.238 215.518 113.196 215.47C111.821 215.454 110.462 215.438 109.128 215.438C103.407 215.438 97.7106 216.029 91.8951 216.641L91.6738 216.665C85.9628 217.266 80.135 217.879 74.2467 217.905C66.4657 217.938 58.689 217.927 50.9127 217.916C47.0254 217.91 43.1382 217.905 39.2506 217.905C38.1557 217.905 37.2682 217.017 37.2682 215.922C37.2682 214.827 38.1557 213.94 39.2506 213.94C43.1505 213.94 47.0439 213.945 50.934 213.951C58.7032 213.962 66.4595 213.973 74.2296 213.94C79.917 213.915 85.5759 213.32 91.3494 212.712L91.4802 212.698C97.2653 212.09 103.166 211.473 109.128 211.473C110.567 211.473 111.991 211.49 113.404 211.506C117.391 211.553 121.288 211.599 125.169 211.265C126.562 211.145 129.074 211.36 130.798 211.569C131.667 211.675 132.49 211.797 132.969 211.91C133.073 211.935 133.279 211.986 133.484 212.072L133.491 212.075C133.554 212.101 133.889 212.24 134.189 212.554C134.359 212.732 134.72 213.179 134.742 213.871C134.766 214.636 134.366 215.16 134.083 215.416C133.826 215.648 133.57 215.756 133.46 215.799C133.328 215.851 133.214 215.88 133.143 215.896C133.002 215.927 132.876 215.941 132.798 215.948C132.635 215.963 132.457 215.966 132.29 215.966C131.872 215.966 131.484 215.837 131.165 215.616C130.92 215.581 130.636 215.543 130.32 215.505ZM132.089 215.777C132.089 215.777 132.084 215.776 132.077 215.774C132.085 215.776 132.089 215.777 132.089 215.777Z" fill="#FA9E52"/>
<path fill-rule="evenodd" clip-rule="evenodd" d="M132.936 212.915C134.025 212.806 134.996 213.601 135.105 214.69C135.319 216.823 135.413 218.968 135.505 221.052C135.509 221.149 135.513 221.245 135.518 221.341C135.614 223.536 135.714 225.666 135.945 227.769C136.188 229.979 136.099 232.119 135.963 234.136C135.931 234.617 135.896 235.087 135.862 235.549C135.75 237.073 135.644 238.515 135.644 239.987C135.644 242.281 135.445 244.583 135.216 246.814C135.158 247.383 135.098 247.944 135.039 248.5C134.862 250.157 134.691 251.765 134.582 253.367L134.575 253.467C134.463 255.125 134.247 258.311 134.057 260.716C133.962 261.925 133.869 262.993 133.796 263.557C133.779 263.688 133.755 263.862 133.72 264.017L133.72 264.019C133.714 264.047 133.658 264.316 133.508 264.592C133.461 264.679 133.354 264.862 133.167 265.049C132.991 265.226 132.572 265.577 131.914 265.628C131.192 265.685 130.664 265.349 130.386 265.083C130.135 264.844 130.01 264.598 129.959 264.491C129.853 264.266 129.814 264.071 129.802 264.015L129.802 264.015C129.785 263.93 129.776 263.857 129.77 263.81C129.759 263.714 129.754 263.621 129.75 263.548C129.743 263.396 129.741 263.207 129.741 262.993C129.741 262.663 129.822 262.351 129.964 262.078C130.006 261.616 130.054 261.046 130.105 260.404C130.293 258.022 130.507 254.853 130.62 253.192L130.626 253.099C130.741 251.413 130.924 249.697 131.102 248.021C131.16 247.479 131.217 246.941 131.272 246.41C131.498 244.205 131.679 242.069 131.679 239.987C131.679 238.355 131.8 236.717 131.914 235.167C131.947 234.727 131.979 234.294 132.007 233.87C132.14 231.904 132.207 230.05 132.004 228.202C131.757 225.952 131.653 223.699 131.557 221.516C131.553 221.432 131.549 221.347 131.546 221.263C131.452 219.15 131.362 217.105 131.16 215.084C131.051 213.995 131.846 213.024 132.936 212.915Z" fill="#FA9E52"/>
<path fill-rule="evenodd" clip-rule="evenodd" d="M76.5349 265.707C73.1032 265.999 69.6007 266.296 66.0852 266.384C64.5117 266.424 62.9323 266.571 61.2745 266.728L61.1729 266.737C59.5677 266.889 57.8872 267.049 56.187 267.099C54.5951 267.145 53.0576 267.533 51.3206 268.01C51.1919 268.045 51.0617 268.081 50.9302 268.118C49.354 268.553 47.5821 269.042 45.7207 269.197C44.6297 269.288 43.6715 268.478 43.5806 267.387C43.4896 266.295 44.3004 265.337 45.3914 265.246C46.8681 265.123 48.2976 264.73 49.9493 264.275C50.0556 264.246 50.1627 264.216 50.2708 264.187C51.9949 263.713 53.9495 263.198 56.0704 263.136C57.6404 263.089 59.2106 262.941 60.8551 262.785L60.9006 262.781C62.5396 262.625 64.2534 262.464 65.9861 262.421C69.3713 262.336 72.7222 262.052 76.1396 261.762C77.0404 261.685 77.9457 261.609 78.8575 261.535C83.1921 261.185 87.627 260.911 92.1414 261.15C95.4616 261.326 98.7754 261.387 102.128 261.449C102.806 261.461 103.486 261.474 104.168 261.487C108.201 261.567 112.286 261.681 116.388 262.036C117.759 262.155 119.158 262.417 120.425 262.655C120.915 262.747 121.385 262.835 121.826 262.91C123.504 263.194 124.987 263.337 126.453 263.109C126.831 263.051 127.129 263.032 127.442 263.012C128.106 262.971 128.834 262.925 130.516 262.485C131.576 262.208 132.659 262.841 132.936 263.901C133.213 264.96 132.579 266.043 131.52 266.32C129.381 266.88 127.938 266.969 127.337 267.006C127.203 267.014 127.112 267.019 127.062 267.027C124.955 267.355 122.965 267.124 121.164 266.819C120.573 266.719 120.018 266.615 119.483 266.514C118.299 266.291 117.211 266.087 116.046 265.986C112.085 265.643 108.113 265.53 104.089 265.451C103.42 265.438 102.748 265.425 102.075 265.413C98.7213 265.352 95.3267 265.289 91.9317 265.109C87.6954 264.885 83.48 265.139 79.1768 265.487C78.3016 265.557 77.4206 265.632 76.5349 265.707Z" fill="#FA9E52"/>
<path fill-rule="evenodd" clip-rule="evenodd" d="M37.9349 218.059C37.9349 216.964 38.8225 216.077 39.9173 216.077C41.5552 216.077 43.1367 217.006 44.2014 217.703C44.7208 218.043 45.2286 218.406 45.6708 218.723C45.726 218.763 45.7803 218.801 45.8334 218.839C46.3395 219.201 46.7226 219.469 47.0268 219.647C48.0414 220.24 49.0991 220.752 50.2392 221.303C50.3724 221.368 50.5066 221.432 50.6421 221.498C51.9068 222.111 53.26 222.782 54.5575 223.616C58.657 226.252 62.9705 228.816 67.248 231.114C68.0057 231.522 68.7537 231.927 69.4957 232.33C72.7069 234.072 75.8066 235.754 79.0972 237.217C80.1428 237.681 81.3764 238.239 82.4933 238.954C82.6563 239.058 82.8203 239.151 82.9697 239.232C82.9772 239.236 82.9899 239.242 83.0066 239.251C83.1048 239.303 83.3412 239.429 83.4701 239.514C83.5059 239.538 83.5753 239.586 83.655 239.652L83.6586 239.655C83.7067 239.695 83.9236 239.875 84.1011 240.175C84.1966 240.337 84.3766 240.692 84.3779 241.182C84.3793 241.762 84.1297 242.284 83.741 242.644C83.4145 242.946 83.0735 243.059 82.9128 243.103C82.7328 243.152 82.5832 243.166 82.5 243.17C82.243 243.185 82.0267 243.144 81.9954 243.138L81.9923 243.138C81.9199 243.125 81.853 243.109 81.8055 243.098C81.6435 243.06 81.3855 242.989 81.063 242.901L80.9814 242.879C80.4535 242.735 80.0338 242.391 79.7821 241.95C79.0877 241.561 78.314 241.207 77.487 240.84C74.0393 239.307 70.7718 237.534 67.5519 235.786C66.8232 235.391 66.0969 234.997 65.3715 234.607C60.9929 232.254 56.5902 229.636 52.4136 226.951C51.3367 226.259 50.1761 225.678 48.9126 225.066C48.7796 225.001 48.6451 224.936 48.5094 224.871C47.3878 224.329 46.1839 223.747 45.0251 223.069C44.5375 222.784 44.0073 222.408 43.527 222.064C43.4719 222.025 43.4171 221.986 43.3625 221.947C42.9125 221.624 42.4751 221.311 42.0302 221.02C40.9284 220.299 40.2473 220.041 39.9173 220.041C38.8225 220.041 37.9349 219.154 37.9349 218.059Z" fill="#FA9E52"/>
<path fill-rule="evenodd" clip-rule="evenodd" d="M132.328 220.053C132.182 220.222 132.089 220.33 132.041 220.39C129.706 223.325 126.795 226.227 124.053 228.665C120.526 231.8 115.876 234.582 111.947 236.75C111.558 236.965 111.17 237.18 110.782 237.396C106.715 239.654 102.612 241.933 97.6286 243.075C96.5614 243.32 95.4981 242.653 95.2535 241.585C95.009 240.518 95.6758 239.455 96.743 239.21C101.153 238.2 104.775 236.192 108.919 233.895C109.285 233.691 109.656 233.486 110.031 233.279C113.923 231.131 118.243 228.525 121.419 225.701C124.055 223.359 126.789 220.623 128.938 217.921C129.04 217.794 129.225 217.58 129.414 217.362C129.479 217.287 129.544 217.211 129.606 217.139C129.882 216.818 130.183 216.462 130.441 216.132C130.507 216.048 130.568 215.968 130.622 215.895C130.649 214.823 131.526 213.962 132.604 213.962C132.899 213.962 133.432 214.02 133.933 214.409C134.484 214.838 134.688 215.422 134.732 215.865C134.799 216.537 134.528 217.086 134.451 217.241L134.447 217.249C134.22 217.71 133.855 218.203 133.565 218.574C133.247 218.98 132.896 219.394 132.612 219.725C132.501 219.853 132.407 219.962 132.328 220.053Z" fill="#FA9E52"/>
<path d="M80.7981 234.041C83.954 232.507 86.4959 234.83 87.6793 235.794L89.301 237.24C90.4406 235.794 91.3984 234.594 91.887 234.041C93.5152 232.195 96.4891 231.586 98.9436 233.164C101.398 234.742 100.521 239.037 98.9436 242.105C96.7733 246.325 91.0142 250.608 89.9586 250.608C88.556 250.608 85.0057 247.979 81.4993 244.56C77.9929 241.141 76.6345 236.064 80.7981 234.041Z" fill="#FA9E52"/>
</svg>
