<svg width="212" height="284" viewBox="0 0 212 284" fill="none" xmlns="http://www.w3.org/2000/svg">
<path d="M112.275 3.45984C165.388 3.45984 191.945 52.5898 191.945 76.4909C201.56 155.433 153.094 201.908 82.3983 197.324C50.5969 195.262 15.9666 165.778 7.37542 129.604C0.190063 99.3503 5.71609 60.6008 30.9329 34.6002C56.1497 8.59956 83.7003 3.45984 112.275 3.45984Z" fill="white"/>
<path fill-rule="evenodd" clip-rule="evenodd" d="M17.1203 45.0468C33.941 18.9636 63.4872 0.0599365 107.284 0.0599365C136.527 0.0599365 158.59 12.9388 173.28 28.9042C187.829 44.7157 195.447 63.8982 195.447 77.091H187.447C187.447 66.3827 180.945 49.0497 167.393 34.321C153.982 19.7461 133.964 8.05994 107.284 8.05994C66.0984 8.05994 39.1341 25.6719 23.8435 49.3825C8.43508 73.2758 4.68819 103.677 10.769 129.28C14.7671 146.114 27.7935 162.152 44.075 174.07C60.3653 185.994 79.1866 193.26 94.0051 193.26C96.2143 193.26 98.0051 195.051 98.0051 197.26C98.0051 199.469 96.2143 201.26 94.0051 201.26C76.9556 201.26 56.5085 193.085 39.3497 180.525C22.182 167.958 7.57859 150.468 2.98552 131.129C-3.54812 103.619 0.417326 70.9475 17.1203 45.0468Z" fill="#FFC18D"/>
<path d="M9.28395 133.441C14.1898 132.261 27.1267 142.736 28.4546 147.134C28.4546 151.118 23.7407 151.118 15.5081 151.118C12.5205 152.114 13.5164 157.01 11.1927 159.998C8.86899 162.985 5.35708 162.334 4.88546 158.089C4.5535 155.101 2.72769 135.018 9.28395 133.441Z" fill="#FFC18D"/>
<path d="M195.351 91.1679C200.19 89.7368 206.156 74.1969 205.107 69.7238C203.115 66.274 199.033 68.6309 191.903 72.7472C188.818 73.3786 187.232 68.6402 183.726 67.2147C180.22 65.7892 177.504 68.1096 179.218 72.0214C180.424 74.7747 188.885 93.0805 195.351 91.1679Z" fill="#FFC18D"/>
<path d="M106.952 67.0443C108.777 67.0443 111.101 68.3826 112.512 67.8794C114.478 65.4452 118.984 60.8287 118.715 61.0742C118.498 61.2873 118.277 61.5068 118.051 61.733C118.459 61.3244 118.666 61.1189 118.715 61.0742C125.385 54.5175 127.705 54.1097 132.989 55.8458C138.445 57.6382 154.422 61.733 156.414 75.0995C157.154 80.0653 148.591 85.9661 144.275 85.9661C139.96 85.9661 135.313 83.3104 132.989 83.6424C130.665 83.9743 139.628 97.9166 144.275 103.56C153.902 126.797 147.927 136.756 145.935 142.731C144.342 147.511 135.091 152.469 130.665 154.35C122.698 157.448 102.835 163.534 79.731 156.098C56.6266 148.662 58.298 119.162 62.9454 106.216C66.1543 97.5847 70.6468 81.4514 62.9454 85.9661C53.3186 91.6094 43.3597 92.9372 38.7123 91.9414C34.0648 90.9455 46.535 69.6999 54.1701 64.3886C60.2781 60.1396 70.1378 64.61 72.5721 68.7041C74.0106 67.5976 79.7147 64.3886 91.1619 64.3886C97.6568 64.3886 105.126 67.0443 106.952 67.0443Z" fill="white"/>
<path d="M109.121 111.283C96.1748 102.652 102.703 81.7387 109.121 74.7676C112.883 68.903 121.47 56.8418 125.719 55.5139C131.03 53.8541 143.313 61.4892 148.956 63.481C154.6 65.4727 155.927 76.4274 155.595 79.0831C155.263 81.7387 148.956 88.046 140.325 84.7264C133.421 82.0707 131.916 84.7264 132.026 86.3862C129.703 91.0336 141.413 98.4452 143.313 102.652C147.031 110.885 142.87 113.607 140.325 113.939C136.342 118.254 122.068 119.914 109.121 111.283Z" fill="#FFDABB"/>
<path fill-rule="evenodd" clip-rule="evenodd" d="M101.513 124.629C102.576 124.327 103.682 124.943 103.984 126.006C104.484 127.763 104.511 130.706 102.655 133.124C100.711 135.657 97.1552 137.047 91.6648 136.511C90.5655 136.403 89.7613 135.425 89.8686 134.326C89.9759 133.226 90.9541 132.422 92.0535 132.53C96.7646 132.99 98.6877 131.723 99.4824 130.688C100.366 129.537 100.393 127.998 100.137 127.1C99.8347 126.038 100.451 124.932 101.513 124.629Z" fill="#FA9E52"/>
<path fill-rule="evenodd" clip-rule="evenodd" d="M102.197 69.9785C88.7354 65.4913 78.8377 69.2622 75.9807 71.2534C74.6214 72.2008 72.7515 71.8669 71.8041 70.5076C70.8567 69.1483 71.1906 67.2784 72.5499 66.3311C76.996 63.2323 88.8748 59.2132 104.094 64.2864C105.666 64.8103 106.516 66.5093 105.992 68.0811C105.468 69.653 103.769 70.5024 102.197 69.9785Z" fill="#FA9E52"/>
<path fill-rule="evenodd" clip-rule="evenodd" d="M122.442 60.8998C119.818 63.4149 117.398 66.7437 115.993 69.0336C115.127 70.4457 113.279 70.888 111.867 70.0215C110.455 69.1549 110.013 67.3076 110.879 65.8955C112.462 63.3166 115.188 59.5414 118.29 56.5681C119.837 55.0851 121.595 53.6883 123.455 52.7725C125.305 51.8621 127.574 51.2786 129.9 51.9766C133.43 53.0356 137.244 54.6883 140.646 56.2235C141.369 56.5497 142.069 56.8684 142.744 57.1757C145.347 58.361 147.576 59.3755 149.301 59.9918C152.53 61.1448 155.012 63.7835 156.649 66.7688C158.304 69.7871 159.259 73.4374 159.259 77.0913C159.259 80.2705 157.516 82.6794 155.642 84.351C153.772 86.0191 151.458 87.2465 149.533 88.1213C146.913 89.3124 143.721 89.2474 141.061 88.8661C139.491 88.641 137.934 88.2794 136.513 87.8614C137.859 90.8485 140.461 94.9726 143.618 98.7308C145.691 101.198 147.435 104.733 148.79 108.614C150.161 112.539 151.203 117.021 151.767 121.534C152.33 126.039 152.428 130.666 151.856 134.863C151.289 139.018 150.03 143.017 147.655 146.011C143.455 151.307 139.756 153.249 136.667 154.485C136.174 154.682 135.735 154.852 135.34 155.005C133.22 155.827 132.388 156.149 131.535 157.43C130.616 158.808 128.753 159.181 127.374 158.262C125.996 157.343 125.623 155.48 126.542 154.102C128.534 151.114 131.291 150.091 133.46 149.286C133.803 149.159 134.131 149.037 134.439 148.914C136.745 147.991 139.519 146.614 142.954 142.283C144.397 140.464 145.419 137.658 145.911 134.053C146.397 130.491 146.329 126.403 145.813 122.278C145.298 118.16 144.348 114.093 143.126 110.591C141.887 107.044 140.437 104.272 139.024 102.59C135.397 98.2725 132.309 93.3698 130.754 89.6635C130.36 88.7254 130.036 87.7984 129.834 86.9309C129.646 86.1206 129.498 85.0977 129.691 84.0855C129.911 82.934 130.667 81.5382 132.341 81.0049C133.681 80.578 134.965 80.9446 135.796 81.277C137.437 81.9334 139.695 82.609 141.913 82.9268C144.232 83.2593 146.019 83.1279 147.051 82.6591C148.778 81.8742 150.448 80.9438 151.648 79.8733C152.844 78.8063 153.259 77.8955 153.259 77.0913C153.259 74.4379 152.554 71.7809 151.388 69.6538C150.203 67.4938 148.702 66.1489 147.283 65.6422C145.294 64.9319 142.748 63.7719 140.116 62.5727C139.473 62.2796 138.825 61.9843 138.178 61.6925C134.776 60.1572 131.286 58.6563 128.176 57.7235C127.847 57.6248 127.211 57.6112 126.105 58.1558C125.009 58.6951 123.758 59.6386 122.442 60.8998ZM133.387 86.7879C133.387 86.7869 133.4 86.7893 133.428 86.7978C133.402 86.7931 133.388 86.7888 133.387 86.7879Z" fill="#FA9E52"/>
<path fill-rule="evenodd" clip-rule="evenodd" d="M62.7749 60.2597C67.6723 61.2616 71.5395 64.6019 73.6365 67.2708C74.6602 68.5736 74.4338 70.4596 73.131 71.4832C71.8282 72.5069 69.9422 72.2805 68.9186 70.9777C67.3641 68.9992 64.6253 66.7625 61.5722 66.1379C58.8501 65.581 55.2839 66.1746 51.368 71.0119C45.7812 77.9132 41.9436 84.5826 41.06 88.8238C40.6039 91.0131 41.1287 91.4858 41.1433 91.4983C41.2878 91.6227 42.3162 92.2183 45.7011 91.4311C52.4333 89.8655 56.2891 87.6994 58.8797 86.1686C59.0259 86.0822 59.1753 85.993 59.3274 85.9023C60.4038 85.2602 61.6103 84.5405 62.7093 84.1764C63.429 83.9379 64.3002 83.7725 65.2658 83.9069C66.2547 84.0445 67.0985 84.4621 67.808 85.014C68.844 85.8198 69.1701 86.943 69.2919 87.5886C69.4258 88.2987 69.4251 89.0406 69.3828 89.705C69.2973 91.0485 68.9946 92.6949 68.604 94.4499C68.0755 96.8247 67.3091 99.7203 66.4915 102.81C66.1002 104.288 65.6971 105.811 65.3028 107.342C64.0628 112.158 62.8733 117.183 62.2131 121.749C61.5397 126.407 61.4834 130.185 62.2087 132.69C65.6216 144.48 76.666 155.713 89.4671 155.422C91.1235 155.384 92.4969 156.697 92.5345 158.353C92.5722 160.01 91.2599 161.383 89.6034 161.421C73.1921 161.794 60.3355 147.797 56.4453 134.359C55.3448 130.557 55.5789 125.704 56.2749 120.89C56.984 115.985 58.2427 110.699 59.4924 105.846C59.9161 104.201 60.3352 102.618 60.7336 101.113C61.5306 98.1024 62.2447 95.4048 62.7473 93.1464C62.973 92.1324 63.141 91.27 63.2512 90.5571C62.9709 90.7199 62.6399 90.9156 62.2423 91.1507C62.1431 91.2094 62.0398 91.2705 61.9321 91.3341C59.0453 93.04 54.6022 95.5212 47.0601 97.2752C43.3079 98.1478 39.6889 98.1625 37.2296 96.0462C34.6403 93.8179 34.6049 90.3901 35.1862 87.6001C36.3773 81.8825 41.0047 74.2777 46.7045 67.2367C51.8179 60.9201 57.5466 59.19 62.7749 60.2597Z" fill="#FA9E52"/>
<path d="M95.1788 119.914C93.5854 115.399 98.941 115.156 101.818 115.598C104.031 115.598 108.59 116.462 109.121 119.914C109.785 124.229 105.47 125.557 103.478 126.221C101.486 126.885 97.1705 125.557 95.1788 119.914Z" fill="#FA9E52"/>
<path d="M94.1827 95.5149C94.1827 97.0732 93.1423 98.3365 91.859 98.3365C90.5756 98.3365 89.5353 97.0732 89.5353 95.5149C89.5353 93.9565 90.5756 92.6932 91.859 92.6932C93.1423 92.6932 94.1827 93.9565 94.1827 95.5149Z" fill="#FA9E52"/>
<path d="M112.606 96.0129C112.606 97.2963 111.678 98.3366 110.532 98.3366C109.386 98.3366 108.457 97.2963 108.457 96.0129C108.457 94.7296 109.386 93.6892 110.532 93.6892C111.678 93.6892 112.606 94.7296 112.606 96.0129Z" fill="#FA9E52"/>
<path fill-rule="evenodd" clip-rule="evenodd" d="M101.709 123.938C102.787 123.695 103.857 124.371 104.101 125.449C104.438 126.943 105.323 129.201 106.716 130.876C108.07 132.502 109.665 133.346 111.675 132.9C112.753 132.66 113.821 133.34 114.061 134.418C114.3 135.497 113.621 136.565 112.542 136.805C108.576 137.686 105.58 135.763 103.642 133.434C101.743 131.153 100.636 128.266 100.199 126.33C99.9556 125.252 100.632 124.182 101.709 123.938Z" fill="#FA9E52"/>
<path fill-rule="evenodd" clip-rule="evenodd" d="M122.106 184.796C124.577 183.563 127.58 184.568 128.812 187.039L133.256 195.951C134.489 198.422 133.484 201.424 131.013 202.657C128.542 203.889 125.54 202.885 124.307 200.414L119.863 191.501C118.631 189.03 119.635 186.028 122.106 184.796Z" fill="#FFC18D"/>
<path fill-rule="evenodd" clip-rule="evenodd" d="M152.107 170.292C154.06 168.339 157.226 168.339 159.178 170.292L166.22 177.333C168.173 179.286 168.173 182.452 166.22 184.405C164.268 186.357 161.102 186.357 159.149 184.405L152.107 177.363C150.155 175.41 150.155 172.244 152.107 170.292Z" fill="#FFC18D"/>
<path fill-rule="evenodd" clip-rule="evenodd" d="M173.921 147.187C175.302 144.795 178.36 143.976 180.751 145.357L191.388 151.498C193.78 152.879 194.599 155.937 193.218 158.328C191.838 160.72 188.78 161.539 186.388 160.158L175.751 154.017C173.36 152.636 172.54 149.578 173.921 147.187Z" fill="#FFC18D"/>
<path fill-rule="evenodd" clip-rule="evenodd" d="M185.078 118.288C185.793 115.621 188.534 114.038 191.202 114.753L200.821 117.33C203.488 118.045 205.071 120.787 204.357 123.454C203.642 126.121 200.9 127.704 198.233 126.99L188.613 124.412C185.946 123.697 184.363 120.956 185.078 118.288Z" fill="#FFC18D"/>
<path d="M196.8 246.67H198.314C199.587 246.67 200.603 249.457 201.364 255.031L200.597 258.828V259.595C200.597 270.757 199.587 276.338 197.567 276.338H196.8C195.749 276.117 194.732 274.852 193.75 272.542C194.262 265.93 194.518 260.598 194.518 256.545V251.234C194.836 248.191 195.596 246.67 196.8 246.67ZM169.392 248.952L170.928 249.699H177.774C180.817 249.699 182.339 251.22 182.339 254.263C180.817 258.26 180.057 260.799 180.057 261.877C183.736 263.523 185.762 265.301 186.136 267.21C185.638 268.869 184.628 269.886 183.106 270.259C179.441 268.226 177.159 267.21 176.26 267.21C176.26 267.887 174.987 269.153 172.442 271.006C170.409 270.246 169.392 269.485 169.392 268.724V266.442C172.947 261.006 174.724 257.458 174.724 255.798C173.964 255.798 171.682 255.287 167.878 254.263V249.699C168.888 249.699 169.392 249.45 169.392 248.952Z" fill="#FA9E52"/>
<path d="M149.018 247.458H152.048C153.763 247.458 155.284 251.767 156.612 260.384C162.186 260.384 164.973 261.393 164.973 263.413V264.948C164.655 266.47 162.629 267.23 158.894 267.23H156.612V274.056C156.612 274.457 155.851 275.218 154.33 276.338C150.789 276.338 149.018 267.977 149.018 251.255C148.507 251.255 148.251 250.75 148.251 249.74C148.762 248.758 149.018 247.997 149.018 247.458ZM136.86 252.79C139.862 252.79 142.393 254.305 144.454 257.334V260.384C144.454 266.968 141.162 270.259 134.578 270.259C130.691 270.259 127.904 267.977 126.217 263.413C127.96 256.331 131.508 252.79 136.86 252.79ZM132.296 263.413L133.81 264.18H136.86C138.382 263.669 139.143 262.147 139.143 259.616C138.631 259.616 138.375 259.367 138.375 258.869C134.322 259.256 132.296 260.771 132.296 263.413Z" fill="#FA9E52"/>
<path d="M112.648 243.62H114.163C115.56 243.62 116.576 246.407 117.213 251.981C121.03 253.336 123.056 254.609 123.292 255.799V256.545C123.292 257.763 121.265 258.779 117.213 259.595C117.213 262.14 116.708 263.413 115.698 263.413H114.163C112.129 263.413 111.113 257.064 111.113 244.367L112.648 243.62ZM92.0874 245.134H96.6519C103.25 245.134 107.06 246.407 108.084 248.952C106.562 258.081 104.785 262.645 102.752 262.645C101.23 262.272 100.214 261.255 99.7018 259.595C100.214 258.337 100.469 255.55 100.469 251.234C100.082 251.234 98.5606 250.978 95.905 250.466V251.234C92.3502 250.335 90.5729 249.318 90.5729 248.184V246.67C90.725 245.646 91.2299 245.134 92.0874 245.134ZM108.084 268.724C113.658 269.609 116.445 271.643 116.445 274.824V276.339C116.445 281.415 113.402 283.953 107.316 283.953C102.752 282.404 100.469 280.626 100.469 278.621C100.469 275.26 103.008 271.961 108.084 268.724ZM106.548 277.106C106.714 278.116 107.226 278.621 108.084 278.621H108.831C109.564 278.621 110.324 277.86 111.113 276.339V274.056H110.366C108.042 275.038 106.77 276.055 106.548 277.106Z" fill="#FA9E52"/>
<path d="M76.2568 232.209C79.2998 232.942 80.8213 234.968 80.8213 238.288V247.417C79.9914 249.45 78.214 250.466 75.4892 250.466V251.234C81.5751 251.234 84.6181 251.995 84.6181 253.516V256.545C82.6125 257.057 77.0314 257.569 67.8749 258.081C64.8319 256.781 63.3104 255.003 63.3104 252.749C63.3104 247.161 66.8651 244.367 73.9746 244.367L74.7215 242.852V240.57L73.9746 239.055C69.9081 239.387 67.8749 239.892 67.8749 240.57C64.8319 239.546 63.3104 238.53 63.3104 237.52V234.491L76.2568 232.209ZM85.3857 261.11L87.6679 264.16V264.927C87.6679 266.587 84.625 267.604 78.5391 267.977V279.388C78.5391 280.398 78.0273 280.903 77.0037 280.903H74.7215C73.366 280.903 72.1004 277.099 70.9247 269.492C69.2234 269.492 67.9578 269.236 67.1279 268.724C66.2289 269.236 65.2123 269.492 64.0781 269.492C60.5233 269.492 58.746 267.714 58.746 264.16C60.2675 263.15 62.0448 262.645 64.0781 262.645C68.684 262.645 75.7866 262.133 85.3857 261.11Z" fill="#FA9E52"/>
<path d="M18.5581 242.126H34.5337C35.2668 242.126 36.0275 242.887 36.8159 244.408V245.923C36.8159 247.444 32.7632 248.461 24.6579 248.973C19.5817 248.336 17.0436 247.32 17.0436 245.923V243.64C17.1957 242.631 17.7006 242.126 18.5581 242.126ZM34.5337 252.002C37.0649 252.32 38.3305 253.841 38.3305 256.566C38.3305 257.852 31.9956 258.869 19.3258 259.616C16.601 258.592 15.0795 257.32 14.7614 255.798C15.2731 254.816 15.529 254.056 15.529 253.516C26.3039 253.018 32.6388 252.513 34.5337 252.002ZM42.148 255.052H44.4302C45.4399 255.052 46.4496 258.094 47.4594 264.18H55.0737L55.8206 267.977C55.8206 269.111 53.0335 270.128 47.4594 271.027C47.4594 276.089 46.9545 278.621 45.9448 278.621H44.4302C41.8852 278.621 40.6127 271.013 40.6127 255.798L42.148 255.052ZM26.9194 265.695H29.9692C33.0122 265.695 35.0385 267.472 36.0483 271.027C36.0483 277.224 32.2515 280.771 24.6579 281.671C21.6149 281.671 19.8376 279.637 19.3258 275.571V272.542C21.5389 267.977 24.07 265.695 26.9194 265.695ZM25.4048 274.824V275.571H26.9194C27.7216 275.571 28.7382 274.561 29.9692 272.542V271.774H28.4547C27.6663 271.774 26.6497 272.791 25.4048 274.824Z" fill="#FA9E52"/>
</svg>
