<svg width="60" height="61" viewBox="0 0 60 61" fill="none" xmlns="http://www.w3.org/2000/svg">
<circle cx="30" cy="30.8406" r="30" fill="#CEDBEA"/>
<path d="M16.7936 42.5609C11.4287 34.0259 19.029 23.7634 23.4997 19.6991C38.1313 11.4079 44.431 23.1538 45.7519 30.0631C44.8374 42.5609 36.912 47.1333 34.4734 48.3526C32.0348 49.5719 23.4997 53.2298 16.7936 42.5609Z" fill="#FFE4C5"/>
<path d="M11.0019 36.9217C12.7089 33.9954 15.2695 34.6863 16.3363 35.3976L18.1653 41.3416C15.0662 41.0876 9.2949 39.848 11.0019 36.9217Z" fill="#FFE4C5"/>
<path d="M46.209 42.2561C43.5266 43.5974 41.7383 42.815 41.1794 42.2561L43.0084 37.6838C44.0753 37.4806 46.4529 37.1961 47.4283 37.6838C48.6476 38.2934 49.5621 40.5796 46.209 42.2561Z" fill="#FFE4C5"/>
<path d="M18.6225 17.1082C20.6953 15.2792 24.0585 13.5011 25.481 12.8407C28.7152 11.1162 33.7112 11.6214 37.3691 12.8407C41.027 14.0599 43.618 17.5654 45.1421 19.242C46.6663 20.9185 50.9338 26.1005 48.6476 32.0446C47.7053 34.4946 44.6849 38.2172 43.4656 38.2172C42.2463 38.2172 43.4656 33.4163 43.0084 31.5873C42.7268 30.4612 42.0939 28.8439 41.027 29.4536C39.7037 30.2097 36.1498 31.1301 36.7595 30.0632C37.2472 29.2097 37.9788 24.7288 37.3691 24.1191C36.4547 24.1191 35.7383 24.8659 35.0068 25.7194C33.4826 27.8532 25.481 31.1301 26.5479 29.4536C27.6148 27.777 27.7672 22.1378 26.5479 25.0336C25.5724 27.3503 20.8578 30.0632 18.6225 31.1301C18.6225 29.8092 20.3752 25.0336 19.6893 25.0336C19.0035 25.0336 17.327 28.3867 16.5649 30.0632C15.9553 31.4044 15.3456 35.169 14.1263 35.169C12.907 35.169 12.0484 32.2579 11.5607 29.4536C10.9511 25.9481 16.0314 19.3944 18.6225 17.1082Z" fill="#94ACD0"/>
<path fill-rule="evenodd" clip-rule="evenodd" d="M32.7861 39.4254C33.0027 39.5878 33.0466 39.8951 32.8842 40.1117C32.6216 40.4618 32.141 40.949 31.5207 41.3203C30.8992 41.6924 30.0946 41.9726 29.2107 41.8252C27.6133 41.559 26.4403 40.6132 26.0266 40.1404C25.8483 39.9366 25.8689 39.6269 26.0727 39.4486C26.2765 39.2703 26.5862 39.291 26.7645 39.4947C27.062 39.8348 28.0431 40.6366 29.3719 40.8581C29.9512 40.9547 30.5184 40.7776 31.0171 40.4791C31.517 40.1798 31.9052 39.7829 32.0998 39.5234C32.2623 39.3068 32.5695 39.2629 32.7861 39.4254Z" fill="#947B66"/>
<path d="M25.6334 32.4065C25.6334 32.7748 25.3264 33.0733 24.9476 33.0733C24.5688 33.0733 24.2617 32.7748 24.2617 32.4065C24.2617 32.0383 24.5688 31.7397 24.9476 31.7397C25.3264 31.7397 25.6334 32.0383 25.6334 32.4065Z" fill="#947B66"/>
<path d="M36.7976 32.8747C36.7976 33.3331 36.4393 33.7048 35.9974 33.7048C35.5555 33.7048 35.1973 33.3331 35.1973 32.8747C35.1973 32.4162 35.5555 32.0446 35.9974 32.0446C36.4393 32.0446 36.7976 32.4162 36.7976 32.8747Z" fill="#947B66"/>
<path fill-rule="evenodd" clip-rule="evenodd" d="M24.9467 13.9703C22.6606 15.0682 20.6694 16.4852 19.3817 17.4049C18.1601 18.2775 16.8232 19.7919 15.5819 21.512C14.3464 23.2241 13.2311 25.1042 12.4459 26.6746C11.8873 27.7916 11.9377 29.3246 12.3402 30.8396C12.7403 32.3454 13.459 33.7215 14.0967 34.4718C14.2721 34.6781 14.247 34.9875 14.0407 35.1628C13.8344 35.3382 13.525 35.3131 13.3497 35.1068C12.5984 34.2229 11.8219 32.7067 11.3926 31.0914C10.9659 29.4852 10.8528 27.6682 11.5689 26.2361C12.377 24.62 13.5195 22.6945 14.7869 20.9382C16.0485 19.1899 17.4597 17.5729 18.8118 16.6071C20.0979 15.6885 22.1511 14.2253 24.5222 13.0865C26.8858 11.9514 29.6272 11.1076 32.2815 11.496C32.5494 11.5353 32.7348 11.7842 32.6956 12.0521C32.6564 12.32 32.4074 12.5054 32.1395 12.4662C29.7689 12.1193 27.2404 12.8688 24.9467 13.9703Z" fill="#947B66"/>
<path fill-rule="evenodd" clip-rule="evenodd" d="M33.6611 11.9703C33.7415 11.7118 34.0163 11.5674 34.2748 11.6478C35.2075 11.938 36.9888 12.5541 38.7344 13.3333C39.6073 13.7229 40.4795 14.157 41.2354 14.6155C41.9837 15.0695 42.6516 15.5672 43.0862 16.0933C43.5955 16.7098 44.2112 17.3579 44.8709 18.0523C44.9478 18.1333 45.0253 18.2149 45.1034 18.2972C45.8444 19.0783 46.6238 19.9118 47.3203 20.7884C48.7032 22.5286 49.8324 24.5268 49.6308 26.7448C49.4439 28.8006 48.9459 31.3911 48.0671 33.6352C47.2007 35.8476 45.908 37.8673 44.0428 38.5581C43.7889 38.6521 43.5069 38.5225 43.4128 38.2686C43.3188 38.0147 43.4484 37.7327 43.7023 37.6386C45.1462 37.1039 46.3047 35.4468 47.1541 33.2777C47.9911 31.1403 48.4736 28.6446 48.6544 26.656C48.8204 24.8296 47.8968 23.0897 46.5527 21.3983C45.8858 20.559 45.1332 19.7533 44.392 18.9719C44.3141 18.8897 44.2361 18.8077 44.1584 18.7259C43.5034 18.0365 42.8628 17.3623 42.3303 16.7177C42.0003 16.3182 41.4432 15.8884 40.7269 15.4538C40.0181 15.0239 39.1857 14.6085 38.3348 14.2286C36.6328 13.4689 34.8892 12.8658 33.9835 12.584C33.725 12.5036 33.5806 12.2288 33.6611 11.9703Z" fill="#947B66"/>
<path fill-rule="evenodd" clip-rule="evenodd" d="M27.537 23.3988C27.736 23.5824 27.7484 23.8926 27.5647 24.0915C27.548 24.1096 27.5305 24.1286 27.5123 24.1483C26.9882 24.7155 25.8539 25.943 25.1141 27.1949C24.8861 27.5808 24.3877 28.073 23.8341 28.5531C23.2626 29.0487 22.575 29.5793 21.9126 30.0461C21.2532 30.5107 20.6026 30.9234 20.1065 31.1755C19.8678 31.2969 19.6236 31.4028 19.4174 31.4422C19.3255 31.4598 19.1533 31.4829 18.98 31.4099C18.8802 31.3679 18.7807 31.2938 18.7112 31.1799C18.644 31.0699 18.6254 30.9568 18.6254 30.8674C18.6254 30.7383 18.6475 30.5415 18.6747 30.3313C18.7018 30.1214 18.7387 29.8648 18.7791 29.5841L18.7855 29.5395C18.8719 28.9388 18.9738 28.2249 19.0415 27.555C19.1042 26.9349 19.1334 26.3896 19.1046 26.0165C19.0973 26.0247 19.0899 26.0332 19.0824 26.0419C18.943 26.2035 18.779 26.4228 18.5979 26.6946C18.2362 27.2374 17.8226 27.9641 17.4182 28.7986C16.6065 30.4732 15.8545 32.5341 15.6187 34.3618C15.5841 34.6303 15.3383 34.8199 15.0698 34.7852C14.8012 34.7506 14.6116 34.5048 14.6463 34.2363C14.9007 32.2647 15.6991 30.0973 16.5359 28.3709C16.9556 27.5049 17.3908 26.7379 17.782 26.1509C17.9774 25.8577 18.1659 25.6032 18.3401 25.4013C18.5052 25.21 18.6887 25.0287 18.8776 24.9237C19.0008 24.8553 19.1653 24.7966 19.3532 24.8181C19.5535 24.841 19.7062 24.9463 19.8085 25.0688C19.983 25.2777 20.0408 25.5694 20.0677 25.7937C20.1266 26.2838 20.086 26.9718 20.017 27.6536C19.9469 28.3472 19.842 29.0809 19.756 29.679L19.7501 29.7198C19.7194 29.934 19.6913 30.1287 19.6682 30.2984C20.1032 30.0767 20.7073 29.6959 21.3478 29.2446C21.9883 28.7933 22.6492 28.2828 23.1917 27.8124C23.752 27.3265 24.1331 26.9277 24.27 26.6961C25.0648 25.3511 26.261 24.0574 26.7829 23.4929C26.8045 23.4695 26.825 23.4473 26.8443 23.4265C27.0279 23.2275 27.3381 23.2151 27.537 23.3988ZM19.2206 30.4809C19.2207 30.4807 19.2237 30.4802 19.2293 30.4799C19.2232 30.4809 19.2204 30.4811 19.2206 30.4809ZM19.3565 25.7794C19.3565 25.7794 19.3562 25.7795 19.3555 25.7798C19.3562 25.7795 19.3565 25.7793 19.3565 25.7794Z" fill="#947B66"/>
<path fill-rule="evenodd" clip-rule="evenodd" d="M35.6359 25.8044C35.3939 26.1456 35.1091 26.5086 34.7635 26.8197C34.4594 27.0934 33.9294 27.3856 33.3306 27.6705C32.715 27.9635 31.9714 28.2739 31.1974 28.5758C29.6486 29.1799 27.9535 29.7592 26.8641 30.1087C26.6063 30.1914 26.3303 30.0494 26.2476 29.7916C26.1649 29.5338 26.3068 29.2578 26.5646 29.1751C27.6404 28.83 29.3157 28.2573 30.8411 27.6624C31.6042 27.3647 32.3236 27.0639 32.9093 26.7852C33.5118 26.4985 33.9214 26.2585 34.1076 26.091C34.3747 25.8505 34.6109 25.5548 34.8361 25.2372C34.9461 25.0823 35.0503 24.9266 35.1545 24.771L35.1614 24.7607C35.2663 24.604 35.3727 24.4454 35.4782 24.2993C35.6784 24.022 35.9232 23.7193 36.2278 23.5469C36.3914 23.4542 36.5829 23.3926 36.7976 23.3982C37.0114 23.4038 37.2105 23.4752 37.3917 23.5884L37.5412 23.6819L37.5969 23.8491C37.7624 24.3457 37.9553 25.1687 38.0118 26.0644C38.0677 26.9521 37.9939 27.9721 37.5703 28.8193C37.3466 29.2667 37.1973 29.6296 37.1194 29.9074C37.0805 30.0457 37.0631 30.1503 37.0591 30.2255C37.0585 30.2368 37.0582 30.2469 37.0582 30.256C37.0598 30.256 37.0614 30.2559 37.063 30.2558C37.213 30.2506 37.4833 30.1832 37.9118 29.9911C38.8024 29.5919 39.5063 29.2942 40.0616 29.0959C40.605 28.9018 41.0557 28.7839 41.4214 28.7839C41.6377 28.7839 41.8161 28.8816 41.9354 28.9666C42.0626 29.0573 42.1803 29.1752 42.2859 29.2991C42.498 29.5483 42.7069 29.877 42.8898 30.2265C43.2469 30.909 43.5662 31.7904 43.5662 32.4607C43.5662 32.8137 43.5076 33.311 43.4416 33.83C43.4293 33.927 43.4166 34.0254 43.4038 34.125C43.346 34.5734 43.2854 35.0439 43.2423 35.5006C43.1893 36.062 43.1663 36.571 43.2022 36.9626C43.2201 37.1583 43.2511 37.3023 43.288 37.3999C43.3168 37.4759 43.3402 37.5004 43.3438 37.504C43.5693 37.6511 43.6341 37.9528 43.4883 38.1796C43.3419 38.4074 43.0386 38.4733 42.8108 38.3269C42.5831 38.1805 42.4507 37.9573 42.3712 37.7474C42.2909 37.5354 42.2481 37.2948 42.2258 37.0521C42.1813 36.5667 42.2119 35.9837 42.2661 35.4085C42.311 34.9335 42.3742 34.4426 42.4321 33.9937C42.4447 33.8957 42.4571 33.7998 42.469 33.7064C42.537 33.1706 42.5857 32.7393 42.5857 32.4607C42.5857 32.0279 42.3534 31.3161 42.0211 30.6811C41.8593 30.3718 41.6891 30.1107 41.5393 29.9347C41.4648 29.8472 41.4064 29.7939 41.3677 29.766C41.1768 29.7773 40.8724 29.8474 40.3913 30.0192C39.8742 30.204 39.1993 30.4884 38.3128 30.8858C37.8528 31.092 37.4414 31.2237 37.0972 31.2357C36.92 31.2419 36.7295 31.2177 36.5542 31.1273C36.3687 31.0318 36.2355 30.8799 36.1588 30.6967C36.0217 30.3692 36.0803 29.9812 36.1753 29.6425C36.2774 29.2787 36.4575 28.8526 36.6934 28.3808C37.0051 27.7574 37.0845 26.9389 37.0332 26.1261C36.9907 25.4511 36.8608 24.8218 36.7368 24.3871C36.7295 24.3902 36.7208 24.3944 36.7107 24.4001C36.6093 24.4575 36.4711 24.5991 36.273 24.8733C36.1794 25.003 36.0827 25.147 35.9761 25.3062L35.9665 25.3205C35.8641 25.4734 35.7535 25.6386 35.6359 25.8044ZM41.3424 29.7501C41.3424 29.75 41.3435 29.7505 41.3458 29.7518C41.3436 29.7508 41.3424 29.7502 41.3424 29.7501Z" fill="#947B66"/>
</svg>
