<svg width="60" height="61" viewBox="0 0 60 61" fill="none" xmlns="http://www.w3.org/2000/svg">
<circle cx="30" cy="30.8406" r="30" fill="#C2B9B9"/>
<path d="M15.2706 36.5489C12.832 29.7209 18.3188 18.2595 26.2442 16.7354C31.5278 16.7354 43.033 16.1258 44.2288 31.6718C45.1433 43.5599 35.3889 49.0467 29.5973 49.3515C23.8056 49.6564 18.3188 45.084 15.2706 36.5489Z" fill="#FFE4C5"/>
<path d="M12.9843 40.2068C13.2281 38.256 15.2196 38.0731 16.1849 38.2255L19.6904 42.9502H16.947C15.5245 42.8486 12.7404 42.1577 12.9843 40.2068Z" fill="#FFE4C5"/>
<path d="M46.0579 40.0544C44.9605 41.0298 42.6032 41.6801 41.6379 41.2737C41.6379 39.8512 42.3086 36.9147 44.991 36.5489C48.3441 36.0917 47.4296 38.8351 46.0579 40.0544Z" fill="#FFE4C5"/>
<path d="M25.3297 32.3223C25.3297 32.7237 24.9544 33.049 24.4915 33.049C24.0285 33.049 23.6532 32.7237 23.6532 32.3223C23.6532 31.9209 24.0285 31.5956 24.4915 31.5956C24.9544 31.5956 25.3297 31.9209 25.3297 32.3223Z" fill="#947B66"/>
<path d="M36.7608 31.5956C36.7608 31.997 36.3855 32.3224 35.9225 32.3224C35.4595 32.3224 35.0842 31.997 35.0842 31.5956C35.0842 31.1943 35.4595 30.8689 35.9225 30.8689C36.3855 30.8689 36.7608 31.1943 36.7608 31.5956Z" fill="#947B66"/>
<path fill-rule="evenodd" clip-rule="evenodd" d="M32.9529 39.2845C33.2098 39.3702 33.3486 39.6478 33.263 39.9046C33.0538 40.5322 32.2914 41.51 30.7183 41.6848C29.3616 41.8355 28.603 40.9857 28.3846 40.4762C28.278 40.2273 28.3932 39.9391 28.6421 39.8325C28.891 39.7258 29.1792 39.8411 29.2858 40.0899C29.3723 40.2917 29.772 40.8034 30.61 40.7103C31.7803 40.5803 32.2372 39.8815 32.3328 39.5946C32.4185 39.3377 32.6961 39.1989 32.9529 39.2845Z" fill="#947B66"/>
<path fill-rule="evenodd" clip-rule="evenodd" d="M19.885 32.894C19.3455 33.1847 18.807 33.6058 18.5629 33.9414C18.4791 34.0566 18.3834 34.1819 18.2805 34.3165C18.0443 34.6257 17.7702 34.9845 17.5154 35.3849C17.1454 35.9664 16.9039 36.5096 16.9039 36.93C16.9039 37.2007 16.6844 37.4202 16.4137 37.4202C16.1429 37.4202 15.9235 37.2007 15.9235 36.93C15.9235 36.2073 16.3073 35.4572 16.6881 34.8586C16.9667 34.4208 17.29 33.9974 17.5332 33.6789C17.6262 33.5572 17.7074 33.4507 17.77 33.3647C18.1355 32.8621 18.8163 32.3561 19.4199 32.0308C19.7255 31.8662 20.0453 31.7291 20.329 31.6642C20.4693 31.6321 20.6292 31.6109 20.7869 31.6295C20.9462 31.6483 21.1556 31.7159 21.302 31.9111C21.4645 32.1277 21.4206 32.435 21.204 32.5974C21.0294 32.7283 20.796 32.7252 20.6269 32.6057C20.6059 32.6082 20.5796 32.6127 20.5476 32.62C20.3837 32.6575 20.1509 32.7507 19.885 32.894Z" fill="#947B66"/>
<path fill-rule="evenodd" clip-rule="evenodd" d="M26.3114 28.4514C27.1171 28.6993 27.8756 29.1291 28.3103 29.6975C28.9007 30.4696 29.1355 31.6647 29.1255 32.7148C29.1204 33.2506 29.0517 33.7807 28.916 34.2389C28.7839 34.685 28.5709 35.1213 28.2347 35.4015C27.9338 35.6522 27.3674 35.9231 26.7213 36.132C26.0598 36.3458 25.2531 36.5145 24.4406 36.5248C23.6314 36.535 22.7783 36.3882 22.0628 35.9309C21.3315 35.4634 20.7943 34.7031 20.5809 33.5933C20.2503 31.8741 20.6743 30.6068 21.3877 29.7344C22.0852 28.8817 23.0281 28.4433 23.7016 28.2969C24.5549 28.1114 25.4958 28.2005 26.3114 28.4514ZM26.023 29.3885C25.3329 29.1762 24.5657 29.1124 23.9099 29.255L23.8057 28.776L23.9099 29.255C23.4149 29.3626 22.6812 29.7016 22.1467 30.3552C21.6282 30.9892 21.2647 31.9572 21.5437 33.4082C21.7113 34.2797 22.1077 34.7959 22.5909 35.1048C23.09 35.4238 23.7324 35.5532 24.4282 35.5444C25.1209 35.5356 25.8287 35.39 26.4198 35.199C27.0264 35.003 27.4507 34.7785 27.607 34.6483C27.728 34.5474 27.8675 34.3264 27.9759 33.9605C28.0807 33.6066 28.1407 33.1698 28.1451 32.7054C28.1541 31.7551 27.9316 30.8164 27.5314 30.2931C27.2674 29.9478 26.7229 29.6038 26.023 29.3885Z" fill="#947B66"/>
<path fill-rule="evenodd" clip-rule="evenodd" d="M35.6807 27.1381C36.6553 27.0336 37.7834 27.2586 39.0103 28.0609C39.8668 28.6209 40.4187 29.2641 40.7158 29.9575C41.0132 30.6516 41.0385 31.3569 40.9068 32.0122C40.6479 33.3009 39.7778 34.4311 39.0746 35.0803L39.0235 35.1274L38.9613 35.1585C38.2004 35.539 36.9648 35.948 35.7037 35.9342C34.4261 35.9203 33.0698 35.4655 32.2252 34.0578C31.4106 32.7002 31.4338 31.4029 31.806 30.3468C32.1709 29.311 32.8666 28.5144 33.4087 28.0864C33.9437 27.664 34.7151 27.2418 35.6807 27.1381ZM35.7853 28.113C35.0483 28.1921 34.4465 28.5163 34.0162 28.8559L34.0162 28.8559C33.593 29.19 33.0237 29.8413 32.7307 30.6726C32.445 31.4835 32.4174 32.4724 33.0659 33.5534C33.6845 34.5842 34.6652 34.9424 35.7144 34.9538C36.7472 34.9651 37.7944 34.6339 38.4603 34.3123C39.0658 33.7374 39.7477 32.8042 39.9456 31.8191C40.0451 31.3237 40.0208 30.825 39.8146 30.3436C39.6081 29.8616 39.2023 29.3579 38.4738 28.8815C37.4175 28.1909 36.5134 28.0349 35.7853 28.113Z" fill="#947B66"/>
<path fill-rule="evenodd" clip-rule="evenodd" d="M30.7028 31.0955C30.2604 31.1482 29.8079 31.3338 29.534 31.4888C29.2984 31.6222 28.9992 31.5392 28.8659 31.3036C28.7326 31.068 28.8155 30.7688 29.0511 30.6355C29.4057 30.4349 29.9829 30.1938 30.5871 30.1219C31.1868 30.0506 31.927 30.1381 32.428 30.7523C32.5991 30.9621 32.5678 31.2709 32.358 31.4421C32.1481 31.6132 31.8393 31.5818 31.6682 31.372C31.4731 31.1327 31.1498 31.0424 30.7028 31.0955Z" fill="#947B66"/>
<path d="M12.0699 29.9952C11.7041 25.7277 16.1851 18.5644 18.3188 16.1258C20.4526 13.6872 25.4822 12.3155 28.2256 12.3155C37.0655 12.3155 41.9427 15.2113 44.9909 18.8692C48.1871 22.7045 48.0392 29.538 47.8868 31.5194C47.7343 33.5007 45.1433 32.4338 43.7716 31.5194C42.3999 30.6049 37.98 24.8132 35.389 24.8132C32.798 24.8132 30.207 26.3374 29.2925 26.6422C28.378 26.947 23.0887 25.7277 21.5195 25.7277C19.9954 25.7277 19.2333 28.6235 18.3188 31.5194C17.4044 34.4152 18.1664 39.2924 16.0326 39.2924C15.423 38.3271 12.4357 34.2628 12.0699 29.9952Z" fill="#A0857F"/>
<path fill-rule="evenodd" clip-rule="evenodd" d="M27.1899 13.1984C24.4415 13.6062 21.6747 14.4777 19.7384 15.8273C17.8143 17.1683 16.082 19.6263 14.746 22.2074C13.4139 24.7807 12.5144 27.4002 12.2189 28.9958C12.0878 29.7038 12.2275 30.6524 12.5713 31.723C12.9111 32.7812 13.4322 33.9039 14.0039 34.9345C14.5754 35.9648 15.1895 36.8885 15.7074 37.5489C15.9675 37.8804 16.1949 38.1349 16.3739 38.3015C16.4322 38.3557 16.4808 38.3964 16.5197 38.4258C16.5552 38.3837 16.6007 38.3164 16.6523 38.2151C16.7903 37.9438 16.9214 37.5287 17.0328 37.0013C17.2539 35.9547 17.3746 34.5805 17.3746 33.3187C17.3746 32.1843 17.8803 30.6035 18.4671 29.1463C19.0627 27.667 19.7762 26.2339 20.2536 25.362C20.3837 25.1245 20.6816 25.0374 20.9191 25.1675C21.1566 25.2975 21.2437 25.5955 21.1136 25.8329C20.6515 26.6769 19.9555 28.0748 19.3766 29.5125C18.7889 30.9721 18.355 32.3941 18.355 33.3187C18.355 34.6306 18.2306 36.0752 17.9921 37.204C17.8737 37.7643 17.7213 38.2761 17.5262 38.6597C17.4288 38.8511 17.3081 39.036 17.1547 39.1787C16.9972 39.3251 16.782 39.4466 16.5166 39.4466C16.322 39.4466 16.157 39.3594 16.0548 39.2954C15.9383 39.2225 15.8205 39.1259 15.7058 39.019C15.4749 38.8041 15.2121 38.506 14.936 38.1539C14.3815 37.447 13.7393 36.4788 13.1465 35.4102C12.554 34.342 12.0027 33.1591 11.6378 32.0227C11.2768 30.8987 11.0795 29.7638 11.2548 28.8173C11.5721 27.1038 12.511 24.392 13.8752 21.7566C15.2355 19.1289 17.0573 16.5008 19.1777 15.0229C21.2858 13.5537 24.218 12.6481 27.046 12.2286C29.872 11.8093 32.6737 11.8638 34.5405 12.3788C34.8015 12.4508 34.9548 12.7208 34.8828 12.9818C34.8108 13.2428 34.5408 13.396 34.2798 13.324C32.5924 12.8585 29.9403 12.7904 27.1899 13.1984ZM16.6052 38.4809C16.6052 38.481 16.6037 38.4804 16.6005 38.4789C16.6035 38.48 16.6051 38.4808 16.6052 38.4809Z" fill="#947B66"/>
<path fill-rule="evenodd" clip-rule="evenodd" d="M35.9139 13.1651C36.0113 12.9125 36.2951 12.7868 36.5477 12.8843C37.7548 13.3502 39.4858 14.2882 41.0582 15.2697C42.6188 16.2438 44.0978 17.3067 44.7615 18.0368C45.3739 18.7104 46.2733 20.3236 47.0116 22.0713C47.7509 23.8215 48.3819 25.8306 48.3819 27.3133C48.3819 27.6815 48.4242 28.1182 48.4716 28.6078C48.4795 28.6895 48.4876 28.7728 48.4956 28.8574C48.5501 29.4317 48.6016 30.0595 48.5728 30.639C48.5445 31.2101 48.4361 31.8052 48.114 32.2712C47.7689 32.7707 47.2265 33.0546 46.4948 33.0734C46.0935 33.0837 45.6713 32.9615 45.2614 32.7796C44.8462 32.5953 44.409 32.3342 43.9678 32.0291C43.0854 31.419 42.1439 30.6034 41.2683 29.7857C40.4345 29.007 39.6485 28.215 39.019 27.5806C38.9861 27.5475 38.9536 27.5147 38.9216 27.4825C38.5974 27.1559 38.3215 26.8789 38.1041 26.6703C37.9954 26.5659 37.9054 26.4826 37.8339 26.4206C37.7983 26.3897 37.7697 26.3663 37.7477 26.3494C37.7272 26.3336 37.7177 26.3275 37.7171 26.3271C37.717 26.3271 37.7171 26.3271 37.7174 26.3273C37.5891 26.2524 37.4529 26.1663 37.3083 26.0748C36.9755 25.8642 36.5981 25.6254 36.1691 25.4313C35.5566 25.1542 35.0232 25.0626 34.6114 25.2479C33.3759 25.8039 31.3107 26.6201 29.5972 26.9374C29.1231 27.0252 28.527 27.0258 27.9095 26.9878C27.2846 26.9493 26.6043 26.869 25.9493 26.7803C25.5808 26.7305 25.2054 26.6758 24.8528 26.6245C24.5901 26.5863 24.3401 26.5499 24.1151 26.5187C23.5628 26.4422 23.1411 26.3941 22.8898 26.3941C22.619 26.3941 22.3995 26.1746 22.3995 25.9039C22.3995 25.6331 22.619 25.4136 22.8898 25.4136C23.2206 25.4136 23.7104 25.4728 24.2497 25.5475C24.4944 25.5815 24.7471 25.6183 25.0086 25.6564C25.3505 25.7062 25.7073 25.7582 26.0807 25.8087C26.7279 25.8963 27.3805 25.9729 27.9697 26.0092C28.5662 26.0459 29.0655 26.0387 29.4187 25.9733C31.0143 25.6779 32.9935 24.9008 34.2091 24.3538C35.0229 23.9876 35.899 24.233 36.5733 24.538C37.069 24.7623 37.5557 25.0699 37.902 25.2888C38.0248 25.3664 38.1299 25.4328 38.2115 25.4804C38.3644 25.5696 38.574 25.7622 38.783 25.9628C39.0106 26.1813 39.2953 26.4672 39.6174 26.7917C39.6487 26.8233 39.6804 26.8552 39.7124 26.8874C40.3436 27.5234 41.1177 28.3035 41.9375 29.0691C42.8007 29.8753 43.7015 30.653 44.5253 31.2226C44.9372 31.5073 45.3191 31.7325 45.6591 31.8834C46.0044 32.0366 46.2736 32.0983 46.4697 32.0932C46.933 32.0814 47.1643 31.921 47.3074 31.7138C47.4737 31.4732 47.5683 31.0993 47.5936 30.5904C47.6184 30.0899 47.5742 29.5265 47.5195 28.95C47.512 28.8705 47.5042 28.7904 47.4964 28.7101C47.4493 28.2254 47.4015 27.7332 47.4015 27.3133C47.4015 26.0384 46.839 24.1824 46.1084 22.4528C45.3768 20.7207 44.5297 19.2393 44.036 18.6963C43.4742 18.0782 42.1037 17.078 40.539 16.1014C38.9862 15.1322 37.3162 14.2319 36.1947 13.799C35.9421 13.7015 35.8164 13.4177 35.9139 13.1651Z" fill="#947B66"/>
</svg>
