<svg width="60" height="61" viewBox="0 0 60 61" fill="none" xmlns="http://www.w3.org/2000/svg">
<circle cx="30" cy="30.8406" r="30" fill="#CEDBEA"/>
<circle cx="30" cy="30.8406" r="30" fill="#FFEFEF"/>
<path d="M43.421 44.727C41.3482 45.0928 39.7123 43.3553 39.1534 42.4408C40.1187 41.4247 42.3236 39.545 43.421 40.1546C44.7927 40.9167 46.012 44.2698 43.421 44.727Z" fill="#8DCB8F"/>
<path d="M43.4208 47.4704C41.9576 46.8608 42.8112 44.981 43.4208 44.1173C44.1321 44.1173 45.7375 44.3307 46.469 45.1842C47.3835 46.2511 45.2497 48.2325 43.4208 47.4704Z" fill="#8DCB8F"/>
<path fill-rule="evenodd" clip-rule="evenodd" d="M40.6321 39.9874C41.1137 39.6279 41.7425 39.4419 42.5215 39.5096C43.0566 39.5562 43.5233 39.9059 43.8778 40.3004C44.244 40.708 44.5556 41.2346 44.7726 41.7769C44.9885 42.3168 45.1244 42.9069 45.1061 43.4444C45.0879 43.9783 44.9102 44.5429 44.4055 44.8793C43.6832 45.3609 42.7124 45.2032 41.938 44.9308C41.1281 44.646 40.3379 44.1684 39.8341 43.743L39.8341 43.743C39.6612 43.597 39.5895 43.3777 39.5548 43.2429C39.5126 43.0788 39.4891 42.8872 39.4834 42.6859C39.4718 42.2832 39.5295 41.7892 39.6987 41.3103C39.8681 40.831 40.1591 40.3405 40.6321 39.9874ZM40.5251 43.0615C40.5251 43.0615 40.5246 43.0607 40.5237 43.0588C40.5247 43.0605 40.5251 43.0615 40.5251 43.0615ZM40.5144 43.0334C40.5114 43.0243 40.508 43.0128 40.5043 42.9985C40.4847 42.922 40.4677 42.8059 40.4634 42.6577C40.4549 42.3615 40.4987 41.9893 40.6232 41.637C40.7476 41.285 40.9426 40.9791 41.2187 40.7731C41.4862 40.5733 41.8696 40.4371 42.4365 40.4864C42.6062 40.5012 42.8595 40.634 43.1484 40.9557C43.4257 41.2643 43.6808 41.6876 43.8622 42.141C44.0446 42.597 44.1385 43.0486 44.1262 43.4111C44.1137 43.7773 44.0004 43.971 43.8616 44.0635C43.5544 44.2683 42.9932 44.2626 42.2632 44.0059C41.5947 43.7708 40.9334 43.3756 40.5144 43.0334Z" fill="#947B66"/>
<path fill-rule="evenodd" clip-rule="evenodd" d="M43.8281 44.5021C43.845 44.2319 44.0777 44.0265 44.348 44.0434C44.9915 44.0836 45.6912 44.4817 46.1676 44.9241C46.4116 45.1507 46.6317 45.42 46.7629 45.7086C46.8928 45.9944 46.9643 46.3721 46.77 46.7284C46.4888 47.2439 45.8505 47.5845 45.196 47.7502C44.5129 47.9231 43.6861 47.9409 42.8878 47.698C42.4933 47.5779 42.1918 47.3347 42.0698 46.9619C41.9591 46.6237 42.0306 46.2768 42.133 46.0021C42.3393 45.4491 42.7823 44.8951 43.1072 44.5594C43.2955 44.3649 43.6058 44.3598 43.8004 44.5481C43.8105 44.5579 43.8201 44.568 43.8292 44.5784C43.8269 44.5534 43.8265 44.5279 43.8281 44.5021ZM43.9476 44.8545C43.9604 44.9921 43.9154 45.1342 43.8118 45.2413C43.5238 45.5388 43.1887 45.9775 43.0517 46.3447C42.9826 46.5302 42.9912 46.6252 43.0016 46.6569C43.0047 46.6664 43.009 46.6752 43.0236 46.688C43.0411 46.7033 43.0834 46.7326 43.1733 46.76C43.7844 46.946 44.4283 46.9331 44.9554 46.7997C45.5085 46.6596 45.8198 46.4196 45.908 46.2611C45.9102 46.2499 45.9127 46.2075 45.8703 46.1143C45.81 45.9816 45.6854 45.8143 45.5005 45.6426C45.119 45.2884 44.6237 45.043 44.2868 45.022C44.1505 45.0135 44.0307 44.95 43.9476 44.8545ZM45.907 46.2643C45.9069 46.2642 45.9071 46.2633 45.9079 46.2615C45.9075 46.2634 45.9071 46.2643 45.907 46.2643Z" fill="#947B66"/>
<path d="M14.615 43.8125C13.0299 41.7397 15.8851 40.2055 17.5108 39.6974L20.2542 43.0505C19.0349 44.1682 16.2001 45.8853 14.615 43.8125Z" fill="#8DCB8F"/>
<path d="M13.0908 47.318C11.7496 46.3426 13.6497 44.5746 14.7674 43.8125H16.9011C17.6632 46.8608 14.7674 48.5373 13.0908 47.318Z" fill="#8DCB8F"/>
<path fill-rule="evenodd" clip-rule="evenodd" d="M15.4779 39.9771C16.2377 39.6271 17.1213 39.4723 17.692 39.5088L17.9175 39.5232L18.053 39.7039C18.3316 40.0754 18.7587 40.6602 19.1358 41.2096C19.3242 41.484 19.5029 41.7537 19.6452 41.9855C19.7783 42.2021 19.9071 42.4291 19.9643 42.6005C20.0757 42.9348 19.9606 43.2607 19.8138 43.4964C19.6605 43.7424 19.4272 43.9699 19.1505 44.1618C18.5939 44.5479 17.7918 44.8391 16.8642 44.8391C15.9959 44.8391 15.1919 44.682 14.622 44.192C14.0274 43.6809 13.7951 42.9053 13.8627 41.9252C13.9308 40.9365 14.7366 40.3186 15.4779 39.9771ZM15.8881 40.8676C15.2395 41.1664 14.8707 41.5596 14.8408 41.9927C14.7858 42.7897 14.9825 43.209 15.2611 43.4485C15.5644 43.7092 16.078 43.8586 16.8642 43.8586C17.5911 43.8586 18.1985 43.6289 18.5917 43.3562C18.7898 43.2188 18.9166 43.0824 18.9816 42.978C19.0102 42.932 19.0212 42.9027 19.0253 42.8878C18.9992 42.8256 18.9314 42.6966 18.8097 42.4985C18.6797 42.2868 18.5114 42.0324 18.3275 41.7645C18.0202 41.3169 17.6771 40.8426 17.4134 40.4864C17.0062 40.5047 16.4151 40.6248 15.8881 40.8676ZM19.0278 42.8759C19.0278 42.8759 19.0278 42.8763 19.0277 42.877C19.0277 42.8763 19.0277 42.8759 19.0278 42.8759Z" fill="#947B66"/>
<path fill-rule="evenodd" clip-rule="evenodd" d="M14.6752 43.6135H14.7194C14.9471 43.6135 15.3354 43.6562 15.7271 43.741C16.108 43.8236 16.5714 43.9622 16.9002 44.1923C17.2498 44.437 17.3319 44.8491 17.3295 45.1683C17.327 45.5065 17.2335 45.8777 17.0856 46.2258C16.7967 46.9055 16.2269 47.6589 15.4329 47.9368C14.7911 48.1614 14.0403 48.3015 13.3999 48.0639C13.0648 47.9396 12.7744 47.7165 12.5638 47.3819C12.3578 47.0546 12.2428 46.6446 12.2082 46.1609C12.1463 45.2938 12.5135 44.6766 13.0346 44.2736C13.53 43.8905 14.1492 43.7091 14.6317 43.6214L14.6752 43.6135ZM14.761 44.5947C14.3586 44.6724 13.9383 44.8141 13.6344 45.0492C13.3446 45.2733 13.1501 45.5854 13.1862 46.091C13.2129 46.4652 13.2971 46.7063 13.3936 46.8596C13.4856 47.0057 13.6012 47.0928 13.741 47.1447C14.0505 47.2595 14.5252 47.2157 15.109 47.0114C15.5406 46.8603 15.9512 46.3881 16.1832 45.8423C16.2957 45.5775 16.3478 45.336 16.3491 45.161C16.3499 45.0487 16.3316 45.0008 16.3244 44.9863C16.1599 44.8768 15.8643 44.774 15.5195 44.6993C15.2065 44.6315 14.916 44.5998 14.761 44.5947Z" fill="#947B66"/>
<path d="M15.9867 36.4967C14.2797 28.9371 20.559 20.6459 23.6073 18.5122C30.1102 17.4961 44.6401 18.5121 44.6401 26.4375C44.6401 41.6788 38.8485 46.2511 32.4472 47.7752C26.0459 49.2993 18.1204 45.9463 15.9867 36.4967Z" fill="#FFE4C5"/>
<path d="M13.0909 36.3444C12.3594 34.0277 15.2247 34.0582 16.7488 34.363L17.6633 38.4781C16.444 38.7321 13.8225 38.661 13.0909 36.3444Z" fill="#FFE4C5"/>
<path d="M45.7071 36.8016C45.0974 37.8989 43.4209 38.2749 42.6588 38.3257C42.0492 37.462 41.1957 35.4908 42.6588 34.5154C44.4878 33.2961 46.4691 35.4299 45.7071 36.8016Z" fill="#FFE4C5"/>
<path d="M15.1485 21.408C16.6726 18.817 21.3212 14.8543 24.5218 14.8543C28.637 13.1777 31.5754 13.3521 35.1907 14.0922C40.0414 15.0853 42.8113 17.2928 45.4023 20.7983C47.4751 23.6027 47.9171 30.5527 46.6978 32.6103C45.3388 32.9877 41.7958 30.8072 40.1888 29.8181L40.1441 29.7906C38.1627 28.5713 34.8859 24.9134 34.1238 24.6086C33.5142 24.3648 33.2601 27.352 33.2093 28.8762C33.2093 30.7813 31.4109 29.6077 30.3135 28.8762C28.9418 27.9617 26.3508 25.9803 25.2839 26.6662C23.6421 27.7217 18.273 30.4765 17.0537 31.2385C15.8344 32.0006 13.1672 33.2961 13.0147 31.772C12.8623 30.2479 13.6244 23.999 15.1485 21.408Z" fill="#8DCB8F"/>
<path d="M25.1313 33.3252C25.1313 33.7822 24.7219 34.1527 24.2168 34.1527C23.7118 34.1527 23.3024 33.7822 23.3024 33.3252C23.3024 32.8682 23.7118 32.4977 24.2168 32.4977C24.7219 32.4977 25.1313 32.8682 25.1313 33.3252Z" fill="#947B66"/>
<path d="M35.6479 33.3253C35.6479 33.7823 35.2385 34.1528 34.7334 34.1528C34.2284 34.1528 33.819 33.7823 33.819 33.3253C33.819 32.8683 34.2284 32.4978 34.7334 32.4978C35.2385 32.4978 35.6479 32.8683 35.6479 33.3253Z" fill="#947B66"/>
<path fill-rule="evenodd" clip-rule="evenodd" d="M27.6137 38.8245C27.759 38.5961 28.0621 38.5288 28.2905 38.6741C29.0308 39.1453 29.7997 39.2775 30.4473 39.2276C31.1146 39.1763 31.5987 38.9381 31.7958 38.7411C31.9872 38.5496 32.2976 38.5496 32.4891 38.7411C32.6805 38.9325 32.6805 39.2429 32.4891 39.4344C32.0764 39.847 31.3412 40.1423 30.5225 40.2052C29.6842 40.2697 28.7003 40.0971 27.7641 39.5013C27.5357 39.356 27.4683 39.053 27.6137 38.8245Z" fill="#947B66"/>
<path fill-rule="evenodd" clip-rule="evenodd" d="M25.7659 25.6606L25.9845 25.7798C26.7743 26.2107 27.984 26.8878 29.0473 27.5199C29.5785 27.8357 30.0777 28.143 30.4714 28.4042C30.6679 28.5346 30.8429 28.6566 30.9843 28.7648C31.1153 28.865 31.2516 28.9783 31.3413 29.0905C31.5104 29.3019 31.4761 29.6104 31.2647 29.7795C31.0533 29.9487 30.7448 29.9144 30.5756 29.703C30.5758 29.7032 30.5631 29.6882 30.5269 29.656C30.493 29.6259 30.4473 29.5884 30.3888 29.5437C30.2716 29.4541 30.1166 29.3454 29.9293 29.2211C29.5552 28.9729 29.0717 28.6751 28.5463 28.3627C27.59 27.7942 26.5104 27.1868 25.7338 26.7603C24.8519 27.1812 23.5841 27.8148 22.3964 28.4675C21.7498 28.8228 21.1316 29.1813 20.6143 29.5123C20.0887 29.8485 19.6957 30.1387 19.4782 30.3562C19.164 30.6704 18.7115 30.9461 18.2226 31.1857C17.7261 31.4289 17.1573 31.6513 16.5831 31.8476C15.4349 32.2401 14.2317 32.5393 13.47 32.6958C13.2048 32.7503 12.9456 32.5794 12.8911 32.3142C12.8366 32.049 13.0074 31.7899 13.2726 31.7354C14.0021 31.5855 15.1643 31.2964 16.266 30.9198C16.8168 30.7315 17.3441 30.5242 17.7912 30.3052C18.2459 30.0825 18.5844 29.8634 18.7849 29.6629C19.0822 29.3656 19.5516 29.0282 20.0859 28.6864C20.6283 28.3393 21.2671 27.9693 21.9242 27.6082C23.2387 26.8858 24.6452 26.1888 25.5407 25.7667L25.7659 25.6606Z" fill="#947B66"/>
<path fill-rule="evenodd" clip-rule="evenodd" d="M34.8271 24.9579C35.0111 24.7593 35.3213 24.7474 35.5199 24.9314C36.7578 26.0779 38.7432 27.8104 40.671 29.2778C41.6354 30.0119 42.577 30.6732 43.3983 31.1607C44.2417 31.6614 44.8879 31.935 45.283 31.9727C45.5526 31.9983 45.7503 32.2376 45.7246 32.5072C45.6989 32.7767 45.4596 32.9744 45.1901 32.9487C44.5558 32.8883 43.7425 32.5052 42.8978 32.0038C42.0312 31.4893 41.0562 30.8032 40.0771 30.058C38.1178 28.5666 36.1078 26.8123 34.8536 25.6507C34.655 25.4667 34.6431 25.1565 34.8271 24.9579Z" fill="#947B66"/>
<path fill-rule="evenodd" clip-rule="evenodd" d="M34.0112 24.3744C34.2805 24.402 34.4765 24.6427 34.4489 24.9121C34.3661 25.7186 34.2046 26.9325 33.9872 27.9517C33.8792 28.4578 33.7528 28.9384 33.6073 29.3014C33.5357 29.4802 33.4484 29.6588 33.3387 29.8011C33.2405 29.9286 33.042 30.1321 32.7356 30.1321C32.4648 30.1321 32.2454 29.9126 32.2454 29.6418C32.2454 29.4254 32.3857 29.2417 32.5803 29.1767C32.6095 29.1317 32.6499 29.0548 32.6972 28.9367C32.8112 28.6524 32.9238 28.2369 33.0283 27.7471C33.2357 26.7748 33.3928 25.5988 33.4735 24.812C33.5011 24.5427 33.7419 24.3468 34.0112 24.3744ZM32.5492 29.2176C32.5492 29.2173 32.551 29.2153 32.5546 29.212C32.551 29.2161 32.5492 29.2178 32.5492 29.2176Z" fill="#947B66"/>
<path fill-rule="evenodd" clip-rule="evenodd" d="M24.5851 14.8591C24.5931 15.1298 24.3801 15.3556 24.1095 15.3636C23.195 15.3905 22.4726 15.6913 21.4771 16.3476C20.9735 16.6796 20.4124 17.0941 19.7247 17.6029L19.7025 17.6193C19.0229 18.1222 18.2282 18.7101 17.2674 19.3812C16.5968 19.8495 16.0166 20.6598 15.5274 21.7171C15.0413 22.7676 14.6646 24.0192 14.3768 25.3174C13.8014 27.9139 13.5952 30.6354 13.5549 32.1672C13.5478 32.4378 13.3226 32.6515 13.0519 32.6443C12.7813 32.6372 12.5676 32.412 12.5748 32.1414C12.6162 30.5684 12.8266 27.7809 13.4196 25.1053C13.7161 23.7675 14.1115 22.4422 14.6375 21.3054C15.1604 20.1752 15.8324 19.1875 16.706 18.5773C17.6558 17.914 18.4415 17.3327 19.1216 16.8295L19.1415 16.8148C19.8229 16.3106 20.4071 15.8786 20.9375 15.529C22.0102 14.8218 22.9117 14.4179 24.0807 14.3835C24.3513 14.3756 24.5771 14.5885 24.5851 14.8591Z" fill="#947B66"/>
<path fill-rule="evenodd" clip-rule="evenodd" d="M31.1722 14.0891C29.0074 14.1201 26.995 14.4783 25.8157 14.7954C25.5542 14.8657 25.2852 14.7108 25.2149 14.4493C25.1446 14.1878 25.2996 13.9189 25.561 13.8486C26.8125 13.5121 28.9057 13.141 31.1582 13.1087C33.4017 13.0766 35.8652 13.3793 37.8117 14.4434C42.4176 16.9613 46.3405 19.9943 47.309 24.5142C47.7709 26.6695 48.0544 28.5597 48.0782 29.9937C48.09 30.7086 48.0381 31.339 47.8961 31.8422C47.7563 32.3374 47.5039 32.7942 47.0489 33.0217C46.8068 33.1428 46.5123 33.0446 46.3912 32.8025C46.2701 32.5603 46.3683 32.2658 46.6105 32.1447C46.707 32.0965 46.8452 31.9558 46.9525 31.5759C47.0575 31.2039 47.109 30.6815 47.0979 30.01C47.0757 28.6711 46.8077 26.8539 46.3503 24.7196C45.4805 20.6604 41.9273 17.8107 37.3414 15.3037C35.6111 14.3578 33.3458 14.0579 31.1722 14.0891Z" fill="#947B66"/>
</svg>
