<svg width="141" height="141" viewBox="0 0 141 141" fill="none" xmlns="http://www.w3.org/2000/svg">
<circle cx="70.0876" cy="70.4019" r="70" fill="#FFEFEF"/>
<path d="M38.6692 99.1895C28.7116 72.8731 46.0188 54.6174 57.8731 50.1128C72.5724 48.9274 104.816 50.1128 104.816 76.4293C104.816 99.1895 84.9008 114.553 67.8307 113.415C50.7605 112.277 40.803 106.065 38.6692 99.1895Z" fill="#FFE4C5"/>
<path d="M26.9332 81.7639C28.3557 76.6429 34.4014 76.0738 38.3133 81.7639C39.0246 84.4904 40.0203 90.0857 38.3133 90.6547C36.1795 91.3659 25.1551 88.1652 26.9332 81.7639Z" fill="#FFE4C5"/>
<path d="M108.372 92.7884C102.682 94.922 102.326 93.7368 99.8369 92.7884V84.7275C102.682 79.6301 109.119 78.9986 111.217 80.6968C116.196 84.7275 111.702 91.5398 108.372 92.7884Z" fill="#FFE4C5"/>
<path d="M36.8908 54.736C39.4514 50.4685 40.9213 38.1401 40.8027 33.0427C39.8544 31.2646 38.5267 27.6372 40.8027 27.3527C43.6478 26.9971 51.4716 30.909 55.3835 30.909C59.2954 30.909 66.408 27.7083 83.1225 30.909C99.837 34.1096 108.016 53.6692 109.439 57.9367C110.861 62.2042 110.328 65.4049 105.705 67.8943C101.082 70.3837 97.3476 65.4049 94.5026 67.8943C91.6575 70.3837 85.2562 72.3396 73.5205 70.9171C61.7848 69.4946 54.3166 60.7817 51.4716 65.4049C48.6266 70.028 33.3346 75.3625 32.9789 71.8062C32.6233 68.2499 33.6902 60.0704 36.8908 54.736Z" fill="#CAFBED"/>
<path fill-rule="evenodd" clip-rule="evenodd" d="M62.2557 93.5763C62.6061 93.0506 63.3163 92.9086 63.842 93.259C64.3054 93.568 65.1914 94.0631 66.2614 94.4778C67.3374 94.8949 68.5231 95.2007 69.6088 95.2007C71.8006 95.2007 73.8455 93.9499 74.5544 93.3423C75.0341 92.9311 75.7562 92.9867 76.1673 93.4663C76.5785 93.946 76.5229 94.6681 76.0433 95.0793C75.0926 95.8941 72.538 97.4884 69.6088 97.4884C68.1339 97.4884 66.6524 97.083 65.4346 96.6109C64.2108 96.1366 63.1764 95.5648 62.573 95.1625C62.0473 94.8121 61.9053 94.1019 62.2557 93.5763Z" fill="#947B66"/>
<path d="M60.3625 80.2143C60.3625 81.0044 59.646 81.6449 58.7622 81.6449C57.8784 81.6449 57.1619 81.0044 57.1619 80.2143C57.1619 79.4242 57.8784 78.7837 58.7622 78.7837C59.646 78.7837 60.3625 79.4242 60.3625 80.2143Z" fill="#947B66"/>
<path d="M84.1896 81.9332C84.1896 82.8825 83.3935 83.6521 82.4114 83.6521C81.4294 83.6521 80.6333 82.8825 80.6333 81.9332C80.6333 80.9838 81.4294 80.2142 82.4114 80.2142C83.3935 80.2142 84.1896 80.9838 84.1896 81.9332Z" fill="#947B66"/>
<path fill-rule="evenodd" clip-rule="evenodd" d="M40.7748 29.5307C41.2818 32.4839 41.3176 37.7035 40.9882 42.694C40.8203 45.2385 40.555 47.7599 40.1986 49.9379C39.847 52.0872 39.3919 53.9986 38.8086 55.2626C38.5438 55.8362 37.8642 56.0865 37.2906 55.8218C36.717 55.5571 36.4666 54.8775 36.7314 54.3039C37.1775 53.3373 37.5946 51.6847 37.9409 49.5685C38.2825 47.4811 38.5409 45.0355 38.7054 42.5433C39.0366 37.5258 38.9776 32.4647 38.5029 29.8199L38.4849 29.7196V29.6178C38.4849 28.7368 38.776 27.9588 39.387 27.3822C39.9654 26.8363 40.7181 26.5778 41.4534 26.4649C42.9036 26.2423 44.7358 26.5206 46.4962 26.958C50.0577 27.8429 53.9432 29.5439 55.348 30.3379C55.8386 30.6152 56.7471 30.7289 58.2047 30.5904C59.6115 30.4567 61.2857 30.1183 63.1495 29.7311C63.2763 29.7048 63.4041 29.6782 63.5327 29.6514C67.0868 28.9116 71.2683 28.0411 74.8019 28.4828C81.656 29.3396 98.1373 31.9541 105.575 47.4243C109.16 54.8819 110.41 59.4482 110.37 62.4124C110.35 63.933 109.991 65.0787 109.396 65.9688C108.809 66.8456 108.055 67.3781 107.438 67.7639C106.615 68.2785 105.498 68.4689 104.45 68.5385C103.36 68.6109 102.153 68.5616 101.02 68.4703C99.8829 68.3786 98.7872 68.2414 97.9187 68.1295L97.7947 68.1135C97.0476 68.0172 96.5663 67.9552 96.3356 67.9409C96.3299 67.9429 96.3237 67.945 96.317 67.9474C96.2233 67.9805 96.0868 68.0366 95.896 68.122C95.6285 68.2417 95.3081 68.3944 94.9219 68.5785C94.7517 68.6596 94.5687 68.7468 94.3719 68.84C93.1084 69.4378 91.3949 70.222 89.3722 70.9299C85.3402 72.3411 79.9911 73.4818 74.404 72.1983C69.0117 70.9595 64.3935 69.0667 60.8739 67.6195L60.8281 67.6007C59.0704 66.878 57.6307 66.286 56.4788 65.9204C55.9008 65.7369 55.437 65.6243 55.0723 65.5772C54.6962 65.5287 54.5152 65.5622 54.4509 65.5849C54.2851 65.6434 53.997 65.7949 53.5621 66.0819C53.1433 66.3583 52.6507 66.718 52.088 67.1434C51.7272 67.4162 51.3368 67.7166 50.9244 68.034C50.0754 68.6875 49.1331 69.4127 48.1644 70.115C46.7152 71.1657 45.1385 72.2167 43.5655 73.008C42.0082 73.7913 40.3541 74.3721 38.7709 74.3721C37.4034 74.3721 35.9842 74.2635 34.7382 73.8789C33.482 73.4912 32.302 72.7896 31.5924 71.5417C30.8864 70.3 30.7633 68.7232 31.1791 66.8301C31.5941 64.9403 32.5676 62.6269 34.2054 59.788C34.5211 59.2408 35.2206 59.0531 35.7679 59.3688C36.3151 59.6845 36.5027 60.384 36.187 60.9312C34.6077 63.6688 33.7581 65.7522 33.4136 67.3208C33.0698 68.8861 33.2505 69.8294 33.5811 70.4108C33.9081 70.9859 34.4976 71.4104 35.4129 71.6929C36.3385 71.9786 37.4931 72.0844 38.7709 72.0844C39.8328 72.0844 41.1099 71.6822 42.5375 70.9642C43.9492 70.2541 45.411 69.2855 46.8215 68.2628C47.7655 67.5784 48.6565 66.8926 49.4903 66.2507C49.911 65.9268 50.3173 65.6141 50.7084 65.3184C51.2806 64.8859 51.8202 64.4905 52.3018 64.1726C52.7672 63.8654 53.2477 63.5835 53.6895 63.4275C54.233 63.2357 54.8205 63.2379 55.3654 63.3083C55.9218 63.3802 56.5314 63.5368 57.171 63.7399C58.4144 64.1345 59.9281 64.757 61.6209 65.4531L61.7438 65.5036C65.2662 66.9519 69.7276 68.7767 74.9162 69.9686C79.9099 71.1159 84.7842 70.1118 88.6164 68.7706C90.5258 68.1023 92.1545 67.3583 93.3933 66.772C93.5707 66.6881 93.7428 66.6061 93.908 66.5274C94.3084 66.3365 94.6678 66.1653 94.9613 66.0339C95.1703 65.9403 95.3734 65.8544 95.5551 65.7902C95.6996 65.7392 95.9668 65.6501 96.2508 65.6501C96.5899 65.6501 97.2383 65.7343 97.9407 65.8255C98.0301 65.8371 98.1204 65.8488 98.2111 65.8605C99.0763 65.972 100.125 66.1029 101.204 66.1899C102.288 66.2773 103.369 66.3175 104.298 66.2558C105.269 66.1913 105.905 66.0243 106.225 65.8239C106.752 65.4948 107.178 65.1695 107.494 64.6968C107.801 64.2375 108.067 63.5423 108.083 62.3819C108.115 59.9841 107.077 55.8284 103.513 48.4156C96.6521 34.1449 81.3907 31.612 74.5182 30.7529C71.3702 30.3594 67.5124 31.1611 63.8048 31.9316L63.6148 31.9711C61.7789 32.3525 59.9767 32.7201 58.4211 32.8679C56.9162 33.0109 55.376 32.9816 54.2223 32.3295C52.9962 31.6365 49.3035 30.0128 45.9445 29.1782C44.2447 28.7559 42.7811 28.5757 41.8005 28.7262C41.3204 28.7999 41.074 28.9358 40.9572 29.046C40.8802 29.1187 40.7899 29.2416 40.7748 29.5307ZM96.3908 67.924C96.3908 67.9241 96.3891 67.9246 96.3857 67.9253C96.3892 67.9244 96.3909 67.924 96.3908 67.924Z" fill="#947B66"/>
</svg>
