<svg width="60" height="61" viewBox="0 0 60 61" fill="none" xmlns="http://www.w3.org/2000/svg">
<circle cx="30" cy="30.8406" r="30" fill="#ADCFC7"/>
<path d="M11.0265 44.3794C9.31953 43.8916 12.3474 39.7054 14.0748 37.6732H16.9706C18.1899 39.299 20.4151 42.9162 19.5616 44.3794C18.4947 46.2083 13.1603 44.989 11.0265 44.3794Z" fill="#FFAF8C"/>
<path d="M42.1186 48.0372C37.6072 48.525 35.26 45.8019 34.6504 44.3794C36.8858 38.5877 41.5089 27.0044 42.1186 27.0044C42.8806 27.0044 47.7578 37.6732 49.1295 40.8739C50.5012 44.0745 47.7578 47.4276 42.1186 48.0372Z" fill="#FFAF8C"/>
<path fill-rule="evenodd" clip-rule="evenodd" d="M14.506 36.9954H14.7057C15.5711 36.9954 16.3346 37.4843 16.9463 38.1311C17.564 38.7844 18.0827 39.6547 18.466 40.557C18.8499 41.4607 19.1101 42.425 19.1922 43.2814C19.2714 44.1072 19.1966 44.9524 18.7711 45.5057C18.5358 45.8116 18.1975 45.9961 17.8406 46.1049C17.4831 46.2139 17.0747 46.2571 16.6506 46.2581C15.8025 46.2602 14.812 46.0931 13.864 45.8502C12.9125 45.6064 11.9783 45.2797 11.2366 44.9476C10.8662 44.7818 10.5349 44.6107 10.2701 44.4431C10.0237 44.2871 9.77209 44.0962 9.6328 43.8733C9.45946 43.596 9.5035 43.2806 9.56341 43.0644C9.62868 42.8289 9.75092 42.5749 9.89814 42.3207C10.1949 41.8084 10.6479 41.2033 11.1564 40.5869C12.1774 39.3492 13.4776 37.9999 14.3632 37.1349L14.506 36.9954ZM14.8924 37.9894C14.0301 38.8405 12.846 40.0794 11.9127 41.2108C11.4152 41.8139 11.0027 42.37 10.7466 42.8121C10.6174 43.0351 10.5414 43.2066 10.5083 43.3263C10.5009 43.3527 10.4966 43.373 10.4941 43.388C10.5077 43.4018 10.5254 43.4184 10.548 43.4377C10.6068 43.4879 10.6883 43.5474 10.7945 43.6146C11.007 43.7491 11.2932 43.8987 11.6372 44.0527C12.324 44.3602 13.2052 44.6693 14.1074 44.9004C15.0131 45.1324 15.9147 45.2794 16.6483 45.2776C17.015 45.2767 17.32 45.2386 17.5547 45.167C17.79 45.0953 17.9228 45.0003 17.9939 44.9079C18.1811 44.6645 18.2902 44.1462 18.2162 43.375C18.1452 42.6343 17.9151 41.7678 17.5636 40.9404C17.2116 40.1116 16.7498 39.3503 16.2339 38.8048C15.7785 38.3233 15.3221 38.051 14.8924 37.9894ZM10.4908 43.4226C10.4908 43.4227 10.4907 43.422 10.4907 43.4207C10.4908 43.422 10.4909 43.4226 10.4908 43.4226Z" fill="#947B66"/>
<path fill-rule="evenodd" clip-rule="evenodd" d="M48.9839 38.6232C49.5895 40.2582 50.0025 41.7711 50.0025 42.7556C50.0025 44.7966 48.6799 46.0941 47.0216 46.9313C45.372 47.7641 43.2847 48.2022 41.5067 48.5087C38.4277 49.0396 36.163 47.2321 35.3978 46.2419L35.2396 46.0372L40.9987 28.259L41.1006 28.1699C41.3095 27.9872 41.5593 27.8914 41.8287 27.8865C42.0865 27.8819 42.3335 27.9607 42.5568 28.0746C42.996 28.2987 43.4456 28.7118 43.884 29.2143C44.77 30.23 45.7403 31.7651 46.6355 33.4399C47.5338 35.1202 48.3704 36.9674 48.9839 38.6232ZM41.8322 28.8676C41.8368 28.8672 41.8414 28.8669 41.8462 28.8669C41.8935 28.866 41.9792 28.8807 42.1112 28.948C42.3824 29.0864 42.7332 29.3866 43.1451 29.8588C43.9596 30.7925 44.889 32.2525 45.7709 33.9021C46.6497 35.5461 47.4676 37.3528 48.0644 38.9638C48.669 40.5959 49.022 41.9631 49.022 42.7556C49.022 44.2688 48.0773 45.3 46.5797 46.056C45.0735 46.8165 43.1163 47.2363 41.3401 47.5425C38.9279 47.9584 37.0913 46.6697 36.3357 45.8351L41.8322 28.8676Z" fill="#947B66"/>
<path d="M14.9893 32.6436C14.7455 24.8401 20.781 21.2635 23.8292 20.4507C27.1823 21.1619 32.2126 18.179 39.0704 24.4134C42.4235 27.4616 44.2074 31.399 39.8325 42.0932C37.0891 48.7993 26.8775 48.1897 23.8292 47.58C20.781 46.9704 15.2942 42.398 14.9893 32.6436Z" fill="#FFE4C5"/>
<path d="M12.0935 35.5394C11.8496 32.9789 14.1256 32.9484 15.2941 33.2532L16.6658 38.7401C15.2433 38.7401 12.3373 38.0999 12.0935 35.5394Z" fill="#FFE4C5"/>
<path d="M43.9475 39.5294C42.8502 40.5048 40.3405 39.9358 39.2228 39.5294V36.3287C39.9848 36.2779 41.7833 36.2068 42.8807 36.3287C44.2524 36.4811 45.3193 38.3101 43.9475 39.5294Z" fill="#FFE4C5"/>
<path d="M18.1899 16.1832C20.2058 13.3372 25.6581 13.5922 27.9443 13.5922C30.2305 13.5922 32.5166 13.7446 35.7173 15.1163C38.9179 16.488 41.3565 18.9676 42.5758 21.5586C43.1303 22.7369 44.7096 27.6141 42.5758 28.9858C40.4421 30.3575 27.3346 29.1382 25.6581 28.9858C21.7966 28.6348 19.2568 27.3092 16.5134 25.9375C14.3153 24.8385 15.5989 19.841 18.1899 16.1832Z" fill="#FFAF8C"/>
<path d="M23.2956 31.9959C23.2956 32.3957 23.0056 32.7198 22.6479 32.7198C22.2901 32.7198 22.0001 32.3957 22.0001 31.9959C22.0001 31.596 22.2901 31.2719 22.6479 31.2719C23.0056 31.2719 23.2956 31.596 23.2956 31.9959Z" fill="#947B66"/>
<path d="M32.8215 33.1218C32.8215 33.5217 32.5315 33.8458 32.1738 33.8458C31.816 33.8458 31.526 33.5217 31.526 33.1218C31.526 32.722 31.816 32.3979 32.1738 32.3979C32.5315 32.3979 32.8215 32.722 32.8215 33.1218Z" fill="#947B66"/>
<path fill-rule="evenodd" clip-rule="evenodd" d="M24.0826 37.4232C24.3049 37.2686 24.6104 37.3234 24.765 37.5457C24.9302 37.7831 25.2874 38.1567 25.7541 38.4928C26.2211 38.8292 26.7511 39.0942 27.2549 39.1698C28.5046 39.3572 29.2557 38.8543 30.1309 38.2683C30.1747 38.239 30.2188 38.2095 30.2633 38.1798C30.4886 38.0296 30.793 38.0905 30.9432 38.3158C31.0934 38.541 31.0325 38.8454 30.8072 38.9956C30.7543 39.0308 30.7009 39.0668 30.6467 39.1033C29.7836 39.6841 28.743 40.3844 27.1095 40.1394C26.394 40.0321 25.7175 39.6747 25.1811 39.2884C24.6444 38.9019 24.2014 38.4524 23.9602 38.1056C23.8055 37.8833 23.8604 37.5778 24.0826 37.4232Z" fill="#947B66"/>
<path fill-rule="evenodd" clip-rule="evenodd" d="M19.0324 14.6982C20.626 13.7957 22.3926 13.5434 23.5483 13.5871C23.8189 13.5973 24.0299 13.8249 24.0197 14.0954C24.0095 14.366 23.7819 14.577 23.5114 14.5668C22.5019 14.5287 20.9226 14.7545 19.5156 15.5514C18.1274 16.3376 16.9029 17.6789 16.5376 19.9162C16.2925 21.4175 16.146 22.5679 16.1533 23.4794C16.1606 24.3851 16.32 25.003 16.6422 25.4738C16.965 25.9455 17.495 26.334 18.3749 26.6903C19.2586 27.0482 20.4476 27.3551 22.038 27.6915C25.202 28.3608 30.0161 29.0615 34.229 29.244C36.3377 29.3354 38.2735 29.2958 39.7689 29.0654C40.5172 28.9501 41.1347 28.7901 41.6015 28.5864C42.074 28.3803 42.342 28.1516 42.4673 27.9299C42.6005 27.6942 42.8996 27.6111 43.1353 27.7444C43.371 27.8776 43.4541 28.1767 43.3209 28.4124C43.0478 28.8955 42.5614 29.2374 41.9935 29.4851C41.42 29.7353 40.7114 29.9123 39.9182 30.0345C38.3305 30.279 36.3214 30.316 34.1865 30.2235C29.9123 30.0384 25.0442 29.3296 21.8351 28.6508C20.239 28.3131 18.9769 27.9919 18.0069 27.5991C17.033 27.2048 16.3069 26.72 15.833 26.0275C15.3585 25.334 15.181 24.4965 15.1729 23.4872C15.1649 22.4837 15.3248 21.2595 15.5699 19.7582C15.989 17.1912 17.4199 15.6115 19.0324 14.6982Z" fill="#947B66"/>
<path fill-rule="evenodd" clip-rule="evenodd" d="M34.1674 15.2787C31.1457 14.2286 27.9745 13.9568 25.8865 14.0761C25.6162 14.0916 25.3845 13.885 25.3691 13.6146C25.3537 13.3443 25.5603 13.1127 25.8306 13.0972C28.0321 12.9714 31.3333 13.2557 34.4892 14.3526C37.6429 15.4487 40.7163 17.3802 42.3507 20.5955C43.2982 22.4593 43.7485 23.7858 43.936 24.8373C44.1252 25.8987 44.0411 26.6545 43.9634 27.3379C43.9328 27.607 43.69 27.8003 43.421 27.7697C43.1519 27.7391 42.9586 27.4963 42.9892 27.2272C43.0647 26.5626 43.1338 25.9243 42.9707 25.0094C42.8058 24.0847 42.3983 22.8527 41.4767 21.0398C40.0007 18.1363 37.1914 16.3297 34.1674 15.2787Z" fill="#947B66"/>
</svg>
