<svg width="21" height="20" viewBox="0 0 21 20" fill="none" xmlns="http://www.w3.org/2000/svg">
<path d="M2.68754 9.47078C1.95837 9.47078 1.34205 9.21905 0.838582 8.71558C0.33511 8.2121 0.083374 7.59578 0.083374 6.86662C0.083374 6.13745 0.33511 5.52113 0.838582 5.01766C1.34205 4.51419 1.95837 4.26245 2.68754 4.26245C3.41671 4.26245 4.03303 4.51419 4.5365 5.01766C5.03997 5.52113 5.29171 6.13745 5.29171 6.86662C5.29171 7.59578 5.03997 8.2121 4.5365 8.71558C4.03303 9.21905 3.41671 9.47078 2.68754 9.47078ZM7.37504 5.30412C6.64587 5.30412 6.02955 5.05238 5.52608 4.54891C5.02261 4.04544 4.77087 3.42912 4.77087 2.69995C4.77087 1.97078 5.02261 1.35446 5.52608 0.850992C6.02955 0.347519 6.64587 0.0957832 7.37504 0.0957832C8.10421 0.0957832 8.72053 0.347519 9.224 0.850992C9.72747 1.35446 9.97921 1.97078 9.97921 2.69995C9.97921 3.42912 9.72747 4.04544 9.224 4.54891C8.72053 5.05238 8.10421 5.30412 7.37504 5.30412ZM13.625 5.30412C12.8959 5.30412 12.2796 5.05238 11.7761 4.54891C11.2726 4.04544 11.0209 3.42912 11.0209 2.69995C11.0209 1.97078 11.2726 1.35446 11.7761 0.850992C12.2796 0.347519 12.8959 0.0957832 13.625 0.0957832C14.3542 0.0957832 14.9705 0.347519 15.474 0.850992C15.9775 1.35446 16.2292 1.97078 16.2292 2.69995C16.2292 3.42912 15.9775 4.04544 15.474 4.54891C14.9705 5.05238 14.3542 5.30412 13.625 5.30412ZM18.3125 9.47078C17.5834 9.47078 16.9671 9.21905 16.4636 8.71558C15.9601 8.2121 15.7084 7.59578 15.7084 6.86662C15.7084 6.13745 15.9601 5.52113 16.4636 5.01766C16.9671 4.51419 17.5834 4.26245 18.3125 4.26245C19.0417 4.26245 19.658 4.51419 20.1615 5.01766C20.665 5.52113 20.9167 6.13745 20.9167 6.86662C20.9167 7.59578 20.665 8.2121 20.1615 8.71558C19.658 9.21905 19.0417 9.47078 18.3125 9.47078ZM4.92712 19.8874C4.14587 19.8874 3.49049 19.588 2.96098 18.989C2.43146 18.3901 2.16671 17.6826 2.16671 16.8666C2.16671 15.9638 2.47487 15.1739 3.09119 14.4968C3.70751 13.8197 4.31949 13.1513 4.92712 12.4916C5.4306 11.9534 5.86462 11.3675 6.22921 10.7338C6.59379 10.1001 7.02782 9.50551 7.53129 8.94995C7.91324 8.49856 8.35594 8.1253 8.85942 7.83016C9.36289 7.53502 9.90976 7.38745 10.5 7.38745C11.0903 7.38745 11.6372 7.52634 12.1407 7.80412C12.6441 8.08189 13.0868 8.44648 13.4688 8.89787C13.9549 9.45342 14.3846 10.0524 14.7579 10.6947C15.1311 11.3371 15.5695 11.9361 16.073 12.4916C16.6806 13.1513 17.2926 13.8197 17.9089 14.4968C18.5252 15.1739 18.8334 15.9638 18.8334 16.8666C18.8334 17.6826 18.5686 18.3901 18.0391 18.989C17.5096 19.588 16.8542 19.8874 16.073 19.8874C15.1355 19.8874 14.2066 19.8093 13.2865 19.6531C12.3664 19.4968 11.4375 19.4187 10.5 19.4187C9.56254 19.4187 8.63372 19.4968 7.71358 19.6531C6.79344 19.8093 5.86462 19.8874 4.92712 19.8874Z" fill="#C5A0F6"/>
</svg>
