<svg width="188" height="228" viewBox="0 0 188 228" fill="none" xmlns="http://www.w3.org/2000/svg">
<path d="M144.184 6.80322H145.473C146.332 6.80322 147.336 9.81104 148.484 15.8267C148.195 16.3813 148.051 16.811 148.051 17.1157H146.762C145.965 17.1157 144.961 14.1079 143.75 8.09229C144.039 7.5376 144.184 7.10791 144.184 6.80322ZM148.051 23.1392C149.348 23.6079 150.352 24.4673 151.062 25.7173V27.8618C151.062 28.2759 150.633 28.7056 149.773 29.1509H148.051C146.332 29.1509 145.473 28.2915 145.473 26.5728V26.1392C145.473 24.1392 146.332 23.1392 148.051 23.1392Z" fill="#FA9E52"/>
<path d="M133.988 14.0923C135.519 14.0923 136.523 16.2446 137 20.5493C140.726 20.7524 142.589 21.3267 142.589 22.272V23.561C142.589 24.0454 141.73 24.4751 140.011 24.8501L137.421 24.4282L137 25.2837C137.281 27.2446 137.421 28.8228 137.421 30.0181L136.566 30.4517H135.711C133.976 30.4517 132.968 25.2837 132.687 14.9478L133.988 14.0923ZM121.062 14.9478H127.531C129.25 15.1274 130.109 15.5571 130.109 16.2368V17.9595C126.375 17.9595 124.507 18.5337 124.507 19.6821C124.226 21.2603 124.086 22.4087 124.086 23.1274C124.656 23.2212 124.941 23.5103 124.941 23.9946L125.808 23.561H130.543C130.957 23.561 131.386 23.9907 131.832 24.8501V26.5728L123.218 27.8618C121.5 27.2759 120.64 26.1313 120.64 24.4282V20.1157C120.64 19.4673 120.781 18.8931 121.062 18.3931C120.492 17.2446 120.207 16.2407 120.207 15.3813L121.062 14.9478Z" fill="#FA9E52"/>
<path d="M116.456 10.647H117.323C118.464 10.647 119.034 12.6548 119.034 16.6704V23.1274C119.034 23.5415 118.605 23.9751 117.745 24.4282H116.89C116.476 24.4282 116.046 23.9946 115.601 23.1274V21.4048C115.601 20.0454 115.456 18.6118 115.167 17.104L115.601 15.3813C115.312 13.8267 115.167 12.5337 115.167 11.5024L116.456 10.647ZM103.108 12.3696H103.976C105.124 12.7524 105.698 14.0415 105.698 16.2368V18.3931C109.714 18.104 111.866 17.8188 112.155 17.5376C113.46 18.0923 114.175 18.6665 114.3 19.2603V20.1157C114.3 21.2642 110.569 21.8384 103.108 21.8384C102.538 21.1196 102.108 18.2485 101.819 13.2251L103.108 12.3696Z" fill="#FA9E52"/>
<path d="M90.7798 0.369629C91.3502 1.07275 91.6353 1.64697 91.6353 2.09229C91.6353 3.52197 88.6314 4.23682 82.6236 4.23682H82.19C81.3306 3.94775 80.9009 3.08838 80.9009 1.65869V1.2251C82.1119 0.943848 85.4048 0.658691 90.7798 0.369629ZM91.2134 5.95947L92.9244 6.81494C93.4244 6.52588 93.9986 6.38135 94.647 6.38135C95.4361 6.38135 96.1509 7.81494 96.7916 10.6821C98.3072 10.6821 99.5962 10.8267 100.659 11.1157V12.8267C100.659 13.2876 99.5142 13.8618 97.2252 14.5493L96.7916 15.4048H97.2252C96.9361 15.9595 96.7916 16.3892 96.7916 16.6938H95.5025C94.2369 16.6938 93.3775 13.8306 92.9244 8.104C92.9244 8.88525 88.772 9.6001 80.4673 10.2485L79.6119 8.95947V7.24854L91.2134 5.95947ZM86.9127 10.6821C88.7017 11.2603 89.7056 11.9751 89.9244 12.8267V15.8384C88.5728 17.8384 87.1392 18.8384 85.6236 18.8384C84.1002 18.8384 82.9556 17.6938 82.19 15.4048C82.6353 12.2563 84.2095 10.6821 86.9127 10.6821ZM85.6236 21.8501H86.9127C87.6314 21.8501 88.3462 23.2798 89.0572 26.1392H91.6353C92.2134 26.1392 92.5025 25.854 92.5025 25.2837V23.1392L94.647 22.7056L95.5025 23.9946V30.8735C95.5025 33.1626 93.4986 34.3071 89.4908 34.3071H86.9127C86.0533 33.2524 85.6236 31.2485 85.6236 28.2954V23.9946C85.6236 23.7134 85.483 23.5728 85.2017 23.5728C85.483 23.0649 85.6236 22.4907 85.6236 21.8501ZM89.0572 30.4399V30.8735H90.3462L92.5025 30.4399V29.5845H89.9244C89.3462 29.6704 89.0572 29.9556 89.0572 30.4399Z" fill="#FA9E52"/>
<path d="M75.006 8.51416H76.295C77.3185 8.51416 78.0333 12.9595 78.4396 21.8501L77.5841 22.272H76.295C75.7794 22.272 75.3497 20.9829 75.006 18.4048C74.7169 18.4048 74.5724 18.2603 74.5724 17.9712L73.7169 18.4048H69.8497L66.838 17.9712C66.8224 18.3696 66.1075 18.9438 64.6935 19.6938H61.2482C59.5294 18.7876 58.67 17.2134 58.67 14.9712C58.67 12.9009 60.2482 10.8931 63.4044 8.94775C64.5763 9.52588 65.4357 9.81494 65.9825 9.81494L68.1271 9.38135C69.6349 9.67041 71.0685 9.81494 72.4279 9.81494H73.2833L75.006 8.51416ZM71.5607 13.2485H68.1271V14.5376L70.2716 14.9712H73.7169C74.2872 14.9712 74.5724 14.6821 74.5724 14.104V13.2485C74.0021 13.2485 73.7169 13.104 73.7169 12.8149L71.5607 13.2485ZM61.6818 16.2603L62.5372 16.6821H63.4044C64.545 16.2212 65.1154 15.2212 65.1154 13.6821V13.2485H63.4044C62.256 13.7173 61.6818 14.7212 61.6818 16.2603ZM69.8497 24.8501C72.7169 25.7095 74.1505 26.7134 74.1505 27.8618V30.0181C74.1505 32.3774 72.5724 33.9517 69.4161 34.7407H68.5607C65.9825 34.3735 64.6935 33.0845 64.6935 30.8735V30.4399C64.6935 27.7915 66.1232 25.9282 68.9825 24.8501H69.8497ZM67.6935 30.8735L68.9825 31.729C70.295 31.1743 71.0138 30.604 71.1388 30.0181V29.1509C71.1388 28.5806 70.7091 28.2954 69.8497 28.2954C68.4122 28.7563 67.6935 29.6157 67.6935 30.8735Z" fill="#FA9E52"/>
<path d="M41.1852 0.803223H42.0406C44.236 0.803223 45.525 1.37354 45.9078 2.51416V3.80322L43.7633 4.23682H41.1852C39.7477 4.23682 37.5992 4.38135 34.7399 4.67041L33.8844 3.38135V1.65869C36.1735 1.08838 38.6071 0.803223 41.1852 0.803223ZM45.486 5.95947C46.6266 6.24072 47.1969 6.95557 47.1969 8.104C46.4078 8.74463 44.8336 9.31885 42.4742 9.82666V10.2485C44.193 10.9673 45.0524 12.2563 45.0524 14.1157C45.0524 15.397 44.193 16.8306 42.4742 18.4165V19.7056C43.3336 19.7056 43.7633 19.8462 43.7633 20.1274L44.6188 19.7056C46.0563 20.0728 46.775 20.5024 46.775 20.9946V22.7056L44.6188 23.1392H36.0289C35.6227 23.1392 35.193 22.7095 34.7399 21.8501V20.1274L36.8961 19.7056H39.0406V18.4165C38.0797 18.4165 37.2203 17.4126 36.4625 15.4048C36.7516 13.8892 37.611 12.1704 39.0406 10.2485C34.7438 10.2485 32.5953 9.67822 32.5953 8.5376V6.81494C32.9 6.81494 33.3297 6.67041 33.8844 6.38135L36.0289 6.81494L45.486 5.95947ZM51.0641 7.67041C52.3219 7.67041 53.3258 9.96338 54.0758 14.5493C55.568 14.5493 56.7125 15.2642 57.5094 16.6938V17.1274C57.5094 17.5337 57.0797 17.9634 56.2203 18.4165L53.6422 17.9829C53.3531 20.272 52.9235 21.4165 52.3531 21.4165H51.4977C50.5602 21.4165 49.986 19.5571 49.775 15.8384C49.775 15.479 49.9196 14.0454 50.2086 11.5376L49.775 9.39307C50.2047 8.24463 50.6344 7.67041 51.0641 7.67041ZM40.3297 14.9712H40.7516C41.1656 14.9712 41.5953 14.5415 42.0406 13.6821H41.6188C41.2047 13.6821 40.775 14.1118 40.3297 14.9712ZM42.0406 25.7173C43.111 25.7173 43.9703 27.147 44.6188 30.0063H49.3531C51.0641 30.186 51.9196 30.6157 51.9196 31.2954V33.4517L49.775 33.8735H47.1969C46.9156 33.8735 46.775 33.7329 46.775 33.4517L45.9078 33.8735H45.486C42.3297 33.8735 40.7516 32.2993 40.7516 29.1509V26.5728C40.7516 26.0024 41.1813 25.7173 42.0406 25.7173Z" fill="#FA9E52"/>
<path d="M86.653 80.4248C88.8674 80.4248 91.6856 82.0478 93.3967 81.4376C95.7815 78.485 101.247 72.8853 100.92 73.1843C100.657 73.4426 100.388 73.7089 100.114 73.9831C100.609 73.4878 100.86 73.2386 100.92 73.1843C109.009 65.2321 111.823 64.7375 118.231 66.843C124.848 69.0169 144.225 73.9831 146.641 90.1942C147.539 96.2168 137.154 103.373 131.92 103.373C126.686 103.373 121.049 100.152 118.231 100.555C115.413 100.958 126.283 117.867 131.92 124.711C143.595 152.894 136.348 164.972 133.933 172.219C132 178.016 120.781 184.028 115.413 186.31C105.75 190.067 81.6607 197.448 53.6395 188.43C25.6183 179.411 27.6453 143.634 33.2817 127.932C37.1735 117.464 42.6221 97.8979 33.2817 103.373C21.6063 110.218 9.52797 111.828 3.8915 110.62C-1.74496 109.412 13.379 83.6455 22.6389 77.2039C30.0469 72.0506 42.0047 77.4724 44.9572 82.4378C46.7018 81.0958 53.6198 77.2039 67.503 77.2039C75.3801 77.2039 84.4387 80.4248 86.653 80.4248Z" fill="white"/>
<path d="M89.2841 134.078C73.5825 123.61 81.5004 98.2464 89.2841 89.7917C93.8469 82.679 104.261 68.051 109.414 66.4406C115.856 64.4276 130.752 73.6875 137.596 76.1031C144.441 78.5188 146.051 91.8047 145.649 95.0255C145.246 98.2464 137.596 105.896 127.129 101.87C118.755 98.649 116.93 101.87 117.064 103.883C114.245 109.519 128.448 118.508 130.752 123.61C135.261 133.595 130.215 136.896 127.129 137.299C122.298 142.533 104.986 144.546 89.2841 134.078Z" fill="#FFDABB"/>
<path fill-rule="evenodd" clip-rule="evenodd" d="M80.2803 151.049C81.1358 150.806 82.0266 151.302 82.27 152.157C82.8267 154.114 82.8481 157.397 80.7956 160.071C78.6716 162.838 74.6921 164.498 68.1921 163.863C67.3069 163.777 66.6594 162.989 66.7458 162.104C66.8322 161.219 67.6198 160.571 68.505 160.658C74.3776 161.231 77.0426 159.67 78.2407 158.109C79.5106 156.455 79.5319 154.303 79.1721 153.039C78.9287 152.183 79.4249 151.292 80.2803 151.049Z" fill="#FA9E52"/>
<path fill-rule="evenodd" clip-rule="evenodd" d="M81.2732 82.8235C64.5884 77.2619 52.1806 81.8859 48.3917 84.5266C47.2972 85.2895 45.7916 85.0206 45.0287 83.9261C44.2659 82.8316 44.5348 81.3259 45.6293 80.5631C50.6977 77.0305 64.7007 72.2067 82.801 78.2402C84.0666 78.662 84.7506 80.0301 84.3288 81.2957C83.9069 82.5614 82.5389 83.2454 81.2732 82.8235Z" fill="#FA9E52"/>
<path fill-rule="evenodd" clip-rule="evenodd" d="M104.594 72.0899C101.314 75.2336 98.3171 79.3618 96.5767 82.1979C95.879 83.335 94.3915 83.6911 93.2544 82.9933C92.1173 82.2956 91.7612 80.8081 92.4589 79.671C94.342 76.6023 97.5858 72.1147 101.251 68.602C103.08 66.8486 105.108 65.2469 107.209 64.2129C109.301 63.1833 111.72 62.5974 114.134 63.3217C118.33 64.5804 122.889 66.5539 127.015 68.4158C127.876 68.8041 128.714 69.1857 129.526 69.5554C132.691 70.9966 135.458 72.2565 137.604 73.023C141.151 74.2897 143.961 77.2262 145.854 80.6787C147.762 84.1577 148.869 88.3823 148.869 92.6099C148.869 95.9817 147.026 98.5979 144.891 100.502C142.759 102.403 140.085 103.831 137.791 104.874C134.937 106.171 131.352 106.133 128.195 105.68C125.418 105.282 122.664 104.517 120.445 103.711C120.598 104.226 120.815 104.83 121.103 105.514C122.697 109.313 126.073 114.744 130.186 119.641C132.566 122.474 134.622 126.605 136.241 131.244C137.873 135.918 139.118 141.269 139.792 146.662C140.466 152.049 140.578 157.55 139.902 162.511C139.23 167.438 137.751 172.045 135.061 175.437C130.123 181.663 125.825 183.904 122.239 185.338C121.681 185.561 121.169 185.758 120.698 185.939C118.103 186.938 116.713 187.473 115.45 189.367C114.71 190.477 113.21 190.777 112.1 190.037C110.99 189.297 110.69 187.797 111.43 186.687C113.609 183.419 116.549 182.32 119.184 181.334C119.614 181.174 120.035 181.016 120.444 180.852C123.4 179.67 126.953 177.884 131.275 172.435C133.215 169.989 134.503 166.343 135.115 161.859C135.722 157.409 135.633 152.342 134.998 147.261C134.364 142.186 133.193 137.17 131.68 132.836C130.154 128.466 128.335 124.949 126.487 122.749C122.146 117.581 118.476 111.739 116.648 107.384C116.187 106.287 115.821 105.23 115.596 104.266C115.383 103.348 115.246 102.303 115.433 101.322C115.642 100.229 116.332 98.9945 117.817 98.5215C119.033 98.1342 120.259 98.4527 121.182 98.8217C123.247 99.6479 126.08 100.496 128.881 100.898C131.763 101.311 134.217 101.192 135.792 100.476C137.926 99.5056 140.083 98.3167 141.675 96.8965C143.265 95.4792 144.038 94.0693 144.038 92.6099C144.038 89.188 143.132 85.7631 141.618 83.0017C140.089 80.2138 138.068 78.3191 135.979 77.5728C133.621 76.7306 130.598 75.3535 127.41 73.9012C126.624 73.5429 125.827 73.1801 125.028 72.8195C120.901 70.9574 116.603 69.1062 112.746 67.9492C111.94 67.7074 110.836 67.8125 109.342 68.5477C107.857 69.2785 106.237 70.5151 104.594 72.0899Z" fill="#FA9E52"/>
<path fill-rule="evenodd" clip-rule="evenodd" d="M32.8299 73.3942C38.3936 74.5325 42.8538 78.3587 45.2866 81.4549C46.1108 82.5039 45.9286 84.0225 44.8795 84.8468C43.8305 85.671 42.3119 85.4888 41.4877 84.4397C39.4917 81.8995 35.9401 78.9619 31.8615 78.1274C28.0493 77.3475 23.2834 78.299 18.2901 84.4672C11.4914 92.8657 6.67615 101.145 5.54184 106.59C4.96316 109.367 5.49991 110.543 6.04225 111.01C6.68926 111.566 8.46453 112.165 12.6446 111.192C20.9746 109.255 25.7707 106.564 28.9729 104.672C29.1575 104.563 29.3425 104.452 29.5275 104.342C30.8555 103.551 32.1856 102.759 33.38 102.363C34.135 102.113 34.9961 101.957 35.9275 102.087C36.8775 102.219 37.7049 102.621 38.4284 103.184C39.3388 103.892 39.6516 104.901 39.7772 105.568C39.9127 106.286 39.9171 107.071 39.8688 107.83C39.7714 109.36 39.422 111.281 38.951 113.397C38.3154 116.253 37.3966 119.724 36.409 123.456C35.9329 125.254 35.4408 127.114 34.9567 128.994C33.4508 134.841 31.9941 140.989 31.1834 146.596C30.3621 152.277 30.2575 157.078 31.2137 160.381C35.4501 175.016 49.2143 189.202 65.4754 188.833C66.8092 188.803 67.915 189.859 67.9453 191.193C67.9756 192.527 66.919 193.633 65.5852 193.663C46.4171 194.099 31.1938 177.687 26.5729 161.724C25.3147 157.378 25.5624 151.711 26.4019 145.905C27.252 140.025 28.7644 133.667 30.2781 127.789C30.7859 125.817 31.2909 123.909 31.7727 122.089C32.7437 118.421 33.6203 115.11 34.2352 112.347C34.6952 110.28 34.9749 108.662 35.0473 107.523C35.0634 107.271 35.0675 107.065 35.0646 106.901C35.0189 106.912 34.9642 106.928 34.8995 106.95C34.2398 107.168 33.4146 107.657 31.9158 108.544C31.7614 108.635 31.5999 108.731 31.4307 108.831C27.99 110.864 22.721 113.809 13.739 115.898C9.26303 116.939 5.40184 116.832 2.89092 114.672C0.275332 112.421 0.132684 108.866 0.812141 105.604C2.19411 98.9709 7.64528 89.9383 14.5351 81.4274C20.4926 74.0681 26.9997 72.2014 32.8299 73.3942ZM35.0159 106.406C35.0162 106.405 35.0191 106.413 35.0233 106.432C35.0177 106.416 35.0155 106.406 35.0159 106.406Z" fill="#FA9E52"/>
<path d="M72.3747 144.546C70.4422 139.07 76.9375 138.775 80.4268 139.312C83.1108 139.312 88.6399 140.359 89.2841 144.546C90.0893 149.78 84.8554 151.39 82.4398 152.195C80.0242 153.001 74.7903 151.39 72.3747 144.546Z" fill="#FA9E52"/>
<path d="M71.1667 114.954C71.1667 116.844 69.905 118.377 68.3485 118.377C66.792 118.377 65.5303 116.844 65.5303 114.954C65.5303 113.064 66.792 111.532 68.3485 111.532C69.905 111.532 71.1667 113.064 71.1667 114.954Z" fill="#FA9E52"/>
<path d="M93.5113 115.558C93.5113 117.115 92.3847 118.377 90.995 118.377C89.6053 118.377 88.4788 117.115 88.4788 115.558C88.4788 114.002 89.6053 112.74 90.995 112.74C92.3847 112.74 93.5113 114.002 93.5113 115.558Z" fill="#FA9E52"/>
<path fill-rule="evenodd" clip-rule="evenodd" d="M80.4746 150.222C81.3421 150.026 82.2042 150.57 82.4001 151.438C82.8297 153.34 83.9481 156.207 85.7409 158.362C87.5018 160.478 89.7223 161.721 92.5581 161.091C93.4263 160.898 94.2865 161.446 94.4795 162.314C94.6724 163.182 94.125 164.042 93.2568 164.235C88.8456 165.215 85.4968 163.104 83.2652 160.422C81.0655 157.779 79.7683 154.405 79.2584 152.147C79.0625 151.28 79.607 150.418 80.4746 150.222Z" fill="#FA9E52"/>
<path fill-rule="evenodd" clip-rule="evenodd" d="M154.056 165.107C153.646 164.887 153.384 164.874 152.954 165.148C151.626 165.993 150.296 167.011 148.877 168.122C148.693 168.266 148.507 168.413 148.319 168.56C147.091 169.524 145.793 170.543 144.466 171.472C141.413 173.608 137.826 175.546 133.584 175.546C132.25 175.546 131.169 174.465 131.169 173.131C131.169 171.797 132.25 170.715 133.584 170.715C136.321 170.715 138.896 169.473 141.696 167.514C142.906 166.667 144.088 165.739 145.324 164.769C145.514 164.62 145.706 164.469 145.899 164.318C147.317 163.208 148.812 162.057 150.36 161.072C152.403 159.772 154.542 159.885 156.34 160.85C157.968 161.723 159.247 163.238 160.197 164.717C161.175 166.239 161.953 167.961 162.49 169.538C163.012 171.069 163.377 172.672 163.377 173.936C163.377 178.309 162.953 181.801 161.468 184.961C159.98 188.129 157.55 190.701 154.06 193.492C152.721 194.564 150.781 196.074 148.679 197.32C146.655 198.52 144.115 199.703 141.636 199.703C140.302 199.703 139.221 198.621 139.221 197.287C139.221 195.953 140.302 194.871 141.636 194.871C142.751 194.871 144.342 194.274 146.215 193.164C148.009 192.1 149.73 190.77 151.042 189.72C154.288 187.123 156.063 185.104 157.096 182.906C158.132 180.701 158.546 178.051 158.546 173.936C158.546 173.44 158.366 172.416 157.917 171.095C157.482 169.82 156.862 168.465 156.132 167.327C155.374 166.147 154.637 165.419 154.056 165.107Z" fill="#FA9E52"/>
<path fill-rule="evenodd" clip-rule="evenodd" d="M163.719 137.726C165.039 137.914 165.957 139.138 165.768 140.459C165.492 142.396 164.978 144.256 164.512 145.945L164.497 146.002C164.012 147.757 163.58 149.335 163.353 150.926C163.164 152.247 161.94 153.165 160.62 152.976C159.299 152.787 158.381 151.564 158.57 150.243C158.844 148.323 159.355 146.474 159.819 144.79L159.839 144.717C160.323 142.964 160.757 141.379 160.986 139.775C161.174 138.455 162.398 137.537 163.719 137.726Z" fill="#FFC18D"/>
<path fill-rule="evenodd" clip-rule="evenodd" d="M176.086 162.437C174.289 162.938 172.133 163.539 169.882 163.597C168.548 163.632 167.439 162.579 167.404 161.246C167.369 159.912 168.422 158.803 169.756 158.768C171.364 158.726 172.991 158.284 174.924 157.746C174.965 157.734 175.006 157.723 175.048 157.711C176.832 157.214 178.949 156.624 181.092 156.624C182.426 156.624 183.507 157.706 183.507 159.04C183.507 160.374 182.426 161.455 181.092 161.455C179.679 161.455 178.166 161.858 176.22 162.4C176.175 162.412 176.131 162.425 176.086 162.437Z" fill="#FFC18D"/>
<path fill-rule="evenodd" clip-rule="evenodd" d="M171.535 176.191C171.925 174.915 173.276 174.197 174.551 174.587C176.576 175.207 178.513 176.023 180.312 176.78C180.357 176.799 180.402 176.818 180.447 176.837C182.324 177.628 184.052 178.349 185.803 178.867C187.082 179.245 187.812 180.589 187.434 181.868C187.056 183.147 185.712 183.878 184.433 183.499C182.383 182.894 180.412 182.065 178.572 181.29L178.535 181.274C176.667 180.487 174.925 179.754 173.138 179.207C171.862 178.817 171.144 177.466 171.535 176.191Z" fill="#FFC18D"/>
<path fill-rule="evenodd" clip-rule="evenodd" d="M41.5363 183.21C42.6403 183.959 42.9279 185.461 42.1788 186.565C40.1349 189.577 37.3104 192.858 34.064 195.642C30.8363 198.411 27.0532 200.808 23.0835 201.859C19.9567 202.687 18.6239 203.853 17.912 205.162C17.1019 206.653 16.8289 208.779 16.8289 212.139C16.8289 213.657 17.2103 214.719 17.7605 215.524C18.3282 216.353 19.1787 217.056 20.328 217.667C22.3884 218.764 24.9426 219.355 27.6297 219.977C28.0896 220.083 28.5533 220.19 29.0192 220.301C29.4424 220.402 30.1036 220.591 30.8491 220.803C31.2564 220.92 31.6889 221.043 32.1214 221.163C33.4246 221.525 34.9089 221.912 36.3423 222.191C37.8086 222.477 39.0703 222.619 39.9731 222.569C40.3009 222.55 40.4994 222.513 40.6091 222.484C41.2818 221.51 42.5863 221.154 43.6759 221.698C44.8691 222.295 45.3528 223.746 44.7562 224.939C43.7529 226.946 41.5476 227.319 40.2451 227.392C38.7353 227.477 37.0037 227.242 35.4179 226.933C33.7992 226.618 32.1727 226.192 30.8283 225.818C30.2586 225.66 29.7631 225.518 29.3387 225.397C28.7028 225.215 28.2266 225.079 27.9002 225.001C27.507 224.908 27.0913 224.812 26.6585 224.713C24.0158 224.108 20.7354 223.357 18.0589 221.933C16.4442 221.074 14.9046 219.905 13.7732 218.252C12.6243 216.572 11.9976 214.54 11.9976 212.139C11.9976 208.767 12.2178 205.522 13.6673 202.855C15.2151 200.007 17.9084 198.231 21.8472 197.189C24.8574 196.392 27.9998 194.479 30.9186 191.975C33.8186 189.488 36.3614 186.534 38.1811 183.853C38.9302 182.749 40.4324 182.461 41.5363 183.21ZM40.7237 222.444C40.7243 222.444 40.7179 222.448 40.703 222.454C40.7157 222.446 40.7231 222.443 40.7237 222.444Z" fill="#FA9E52"/>
<path fill-rule="evenodd" clip-rule="evenodd" d="M71.9857 162.663C71.9857 161.996 72.5264 161.455 73.1935 161.455C74.3193 161.455 75.0076 162.181 75.4111 162.825C75.7471 163.361 76.0166 164.049 76.2497 164.644C76.2815 164.725 76.3127 164.805 76.3433 164.882C76.9272 166.357 77.4616 167.4 78.4733 167.804C78.8492 167.955 79.4515 167.992 80.2793 167.819C81.0859 167.651 81.9897 167.306 82.8792 166.843C83.7658 166.382 84.6017 165.822 85.2748 165.25C85.9656 164.663 86.4102 164.127 86.6069 163.733C86.9052 163.137 87.6307 162.895 88.2274 163.193C88.824 163.492 89.0658 164.217 88.7675 164.814C88.3627 165.623 87.6427 166.408 86.839 167.091C86.0176 167.789 85.029 168.448 83.9944 168.986C82.9627 169.523 81.8484 169.959 80.7733 170.184C79.7194 170.404 78.5762 170.447 77.5762 170.047C75.4707 169.205 74.6296 167.116 74.0973 165.772C74.0651 165.69 74.0341 165.612 74.0042 165.536C73.7512 164.894 73.5715 164.439 73.3642 164.108C73.2709 163.959 73.2061 163.894 73.1773 163.871C72.5177 163.862 71.9857 163.325 71.9857 162.663Z" fill="#FA9E52"/>
<path fill-rule="evenodd" clip-rule="evenodd" d="M144.162 197.1C144.295 198.428 143.326 199.612 141.999 199.744C141.64 199.78 140.975 200.117 140.175 201.175C139.425 202.167 138.86 203.408 138.596 204.343C137.856 206.968 137.303 208.976 137.303 211.322C137.303 212.036 137.284 212.683 137.267 213.288C137.228 214.632 137.195 215.761 137.389 216.925C137.399 216.98 137.414 217.069 137.434 217.182C137.499 217.551 137.609 218.173 137.685 218.712C137.735 219.062 137.787 219.478 137.802 219.839C137.808 219.994 137.815 220.294 137.761 220.616C137.737 220.756 137.668 221.122 137.436 221.516C137.177 221.956 136.498 222.732 135.316 222.732C133.982 222.731 132.901 221.65 132.901 220.315C132.901 220.14 132.92 219.97 132.955 219.805C132.943 219.697 132.926 219.56 132.903 219.394C132.838 218.944 132.758 218.487 132.693 218.12C132.667 217.969 132.643 217.833 132.624 217.719C132.347 216.058 132.401 214.199 132.444 212.686C132.458 212.187 132.472 211.726 132.472 211.322C132.472 208.257 133.204 205.663 133.914 203.144C133.925 203.106 133.936 203.069 133.946 203.031C134.358 201.572 135.176 199.776 136.321 198.261C137.416 196.813 139.157 195.173 141.518 194.937C142.846 194.804 144.029 195.773 144.162 197.1ZM132.975 220.058C132.975 220.057 132.974 220.051 132.974 220.039C132.975 220.052 132.975 220.058 132.975 220.058Z" fill="#FA9E52"/>
</svg>
